0
SECTION
2
TABLES
0
TABLE
2
LAYER
70
3
0
LAYER
2
0
70
0
62
7
6
CONTINUOUS
0
ENDTAB
0
TABLE
2
LTYPE
70
4
0
LTYPE
2
BUILDINGSURFACE
70
0
3
IDF building surfaces
72
65
73
0
40
0.0
0
LTYPE
2
FENESTRATIONSURFACE
70
0
3
IDF fenestration surfaces
72
65
73
2
40
0.5
49
0.25
49
-0.25
0
LTYPE
2
SHADINGSURFACE
70
0
3
IDF shading surfaces
72
65
73
2
40
0.25
49
0.125
49
-0.125
0
ENDTAB
0
ENDSEC
0
SECTION
2
ENTITIES
0
3DFACE
8
BERGING
62
  14
10
        7.43
20
       11.69
30
        3.25
11
        7.43
21
       11.69
31
        0.00
12
        1.04
22
       11.69
32
        0.00
13
        1.04
23
       11.69
33
        3.25
0
3DFACE
8
BERGING
62
  14
10
        1.04
20
       11.69
30
        3.25
11
        1.04
21
       11.69
31
        0.00
12
        1.04
22
        9.69
32
        0.00
13
        1.04
23
        9.69
33
        3.25
0
3DFACE
8
BERGING
62
  14
10
        1.04
20
        9.69
30
        3.25
11
        1.04
21
        9.69
31
        0.00
12
        3.28
22
        9.69
32
        0.00
13
        3.28
23
        9.69
33
        3.25
0
3DFACE
8
BERGING
62
  14
10
        3.28
20
        9.69
30
        3.25
11
        3.28
21
        9.69
31
        0.00
12
        3.28
22
        8.06
32
        0.00
13
        3.28
23
        8.06
33
        3.25
0
3DFACE
8
BERGING
62
  14
10
        3.28
20
        8.06
30
        3.25
11
        3.28
21
        8.06
31
        0.00
12
        5.28
22
        8.06
32
        0.00
13
        5.28
23
        8.06
33
        3.25
0
3DFACE
8
BERGING
62
  14
10
        5.28
20
        9.69
30
        0.00
11
        5.28
21
        8.06
31
        0.00
12
        3.28
22
        8.06
32
        0.00
13
        3.28
23
        9.69
33
        0.00
0
3DFACE
8
BERGING
62
  14
10
        5.28
20
       11.69
30
        0.00
11
        5.28
21
        9.69
31
        0.00
12
        1.04
22
        9.69
32
        0.00
13
        1.04
23
       11.69
33
        0.00
0
3DFACE
8
BERGING
62
  14
10
        5.28
20
        7.01
30
        3.25
11
        5.28
21
        7.01
31
        0.00
12
        7.43
22
        7.01
32
        0.00
13
        7.43
23
        7.01
33
        3.25
0
3DFACE
8
BERGING
62
  14
10
        5.28
20
        8.06
30
        3.25
11
        5.28
21
        8.06
31
        0.00
12
        5.28
22
        7.01
32
        0.00
13
        5.28
23
        7.01
33
        3.25
0
3DFACE
8
BERGING
62
  14
10
        7.43
20
        7.01
30
        3.25
11
        7.43
21
        7.01
31
        0.00
12
        7.43
22
       11.69
32
        0.00
13
        7.43
23
       11.69
33
        3.25
0
3DFACE
8
BERGING
62
  14
10
        7.43
20
       11.69
30
        0.00
11
        7.43
21
        7.01
31
        0.00
12
        5.28
22
        7.01
32
        0.00
13
        5.28
23
       11.69
33
        0.00
0
3DFACE
8
HAL
62
  14
10
        1.04
20
        9.69
30
        3.25
11
        1.04
21
        9.69
31
        0.00
12
        1.04
22
        5.96
32
        0.00
13
        1.04
23
        5.96
33
        3.25
0
3DFACE
8
HAL
62
  14
10
        3.28
20
        9.69
30
        3.25
11
        3.28
21
        9.69
31
        0.00
12
        1.04
22
        9.69
32
        0.00
13
        1.04
23
        9.69
33
        3.25
0
3DFACE
8
HAL
62
  14
10
        3.28
20
        8.06
30
        3.25
11
        3.28
21
        8.06
31
        0.00
12
        3.28
22
        9.69
32
        0.00
13
        3.28
23
        9.69
33
        3.25
0
3DFACE
8
HAL
62
  14
10
        3.28
20
        7.01
30
        3.25
11
        3.28
21
        7.01
31
        0.00
12
        3.28
22
        8.06
32
        0.00
13
        3.28
23
        8.06
33
        3.25
0
3DFACE
8
HAL
62
  14
10
        3.28
20
        5.96
30
        3.25
11
        3.28
21
        5.96
31
        0.00
12
        3.28
22
        7.01
32
        0.00
13
        3.28
23
        7.01
33
        3.25
0
3DFACE
8
HAL
62
  14
10
        1.04
20
        5.96
30
        3.25
11
        1.04
21
        5.96
31
        0.00
12
        3.28
22
        5.96
32
        0.00
13
        3.28
23
        5.96
33
        3.25
0
3DFACE
8
HAL
62
  14
10
        3.28
20
        9.69
30
        0.00
11
        3.28
21
        5.96
31
        0.00
12
        1.04
22
        5.96
32
        0.00
13
        1.04
23
        9.69
33
        0.00
0
3DFACE
8
WCBENEDEN
62
  14
10
        5.28
20
        8.06
30
        3.25
11
        5.28
21
        8.06
31
        0.00
12
        3.28
22
        8.06
32
        0.00
13
        3.28
23
        8.06
33
        3.25
0
3DFACE
8
WCBENEDEN
62
  14
10
        5.28
20
        7.01
30
        3.25
11
        5.28
21
        7.01
31
        0.00
12
        5.28
22
        8.06
32
        0.00
13
        5.28
23
        8.06
33
        3.25
0
3DFACE
8
WCBENEDEN
62
  14
10
        3.28
20
        7.01
30
        3.25
11
        3.28
21
        7.01
31
        0.00
12
        5.28
22
        7.01
32
        0.00
13
        5.28
23
        7.01
33
        3.25
0
3DFACE
8
WCBENEDEN
62
  14
10
        3.28
20
        8.06
30
        3.25
11
        3.28
21
        8.06
31
        0.00
12
        3.28
22
        7.01
32
        0.00
13
        3.28
23
        7.01
33
        3.25
0
3DFACE
8
WCBENEDEN
62
  14
10
        5.28
20
        8.06
30
        0.00
11
        5.28
21
        7.01
31
        0.00
12
        3.28
22
        7.01
32
        0.00
13
        3.28
23
        8.06
33
        0.00
0
3DFACE
8
WCBENEDEN
62
  14
10
        3.68
20
        8.06
30
        3.25
11
        3.68
21
        7.01
31
        3.25
12
        5.28
22
        7.01
32
        3.25
13
        5.28
23
        8.06
33
        3.25
0
3DFACE
8
BERGING
62
  14
10
        3.28
20
        9.69
30
        3.25
11
        3.28
21
        8.06
31
        3.25
12
        5.28
22
        8.06
32
        3.25
13
        5.28
23
        9.69
33
        3.25
0
3DFACE
8
BERGING
62
  14
10
        1.04
20
       11.69
30
        3.25
11
        1.04
21
        9.69
31
        3.25
12
        5.28
22
        9.69
32
        3.25
13
        5.28
23
       11.69
33
        3.25
0
3DFACE
8
HAL
62
  14
10
        1.04
20
        9.69
30
        3.25
11
        1.04
21
        7.01
31
        3.25
12
        3.28
22
        7.01
32
        3.25
13
        3.28
23
        9.69
33
        3.25
0
3DFACE
8
LIVING
62
  14
10
        3.28
20
        5.96
30
        0.00
11
        3.28
21
        0.00
31
        0.00
12
        0.00
22
        0.00
32
        0.00
13
        0.00
23
        5.96
33
        0.00
0
3DFACE
8
LIVING
62
  14
10
        5.52
20
        1.02
30
        0.00
11
        5.52
21
        0.00
31
        0.00
12
        3.28
22
        0.00
32
        0.00
13
        3.28
23
        1.02
33
        0.00
0
3DFACE
8
LIVING
62
  14
10
        7.43
20
        7.01
30
        0.00
11
        7.43
21
        1.02
31
        0.00
12
        3.28
22
        1.02
32
        0.00
13
        3.28
23
        7.01
33
        0.00
0
3DFACE
8
LIVING
62
  14
10
       11.67
20
       11.69
30
        0.00
11
       11.67
21
        1.02
31
        0.00
12
        7.43
22
        1.02
32
        0.00
13
        7.43
23
       11.69
33
        0.00
0
3DFACE
8
LIVING
62
  14
10
        1.04
20
        5.96
30
        3.25
11
        1.04
21
        5.96
31
        0.00
12
        0.00
22
        5.96
32
        0.00
13
        0.00
23
        5.96
33
        3.25
0
3DFACE
8
LIVING
62
  14
10
        0.00
20
        5.96
30
        3.25
11
        0.00
21
        5.96
31
        0.00
12
        0.00
22
        0.00
32
        0.00
13
        0.00
23
        0.00
33
        3.25
0
3DFACE
8
LIVING
62
  14
10
        0.00
20
        0.00
30
        3.25
11
        0.00
21
        0.00
31
        0.00
12
        5.52
22
        0.00
32
        0.00
13
        5.52
23
        0.00
33
        3.25
0
3DFACE
8
LIVING
62
  14
10
        5.52
20
        0.00
30
        3.25
11
        5.52
21
        0.00
31
        0.00
12
        5.52
22
        1.02
32
        0.00
13
        5.52
23
        1.02
33
        3.25
0
3DFACE
8
LIVING
62
  14
10
        5.52
20
        1.02
30
        3.25
11
        5.52
21
        1.02
31
        0.00
12
       11.67
22
        1.02
32
        0.00
13
       11.67
23
        1.02
33
        3.25
0
3DFACE
8
LIVING
62
  14
10
       11.67
20
        1.02
30
        3.25
11
       11.67
21
        1.02
31
        0.00
12
       11.67
22
       11.69
32
        0.00
13
       11.67
23
       11.69
33
        3.25
0
3DFACE
8
LIVING
62
  14
10
       11.67
20
       11.69
30
        3.25
11
       11.67
21
       11.69
31
        0.00
12
        7.43
22
       11.69
32
        0.00
13
        7.43
23
       11.69
33
        3.25
0
3DFACE
8
LIVING
62
  14
10
        3.28
20
        5.96
30
        3.25
11
        3.28
21
        5.96
31
        0.00
12
        1.04
22
        5.96
32
        0.00
13
        1.04
23
        5.96
33
        3.25
0
3DFACE
8
LIVING
62
  14
10
        3.28
20
        7.01
30
        3.25
11
        3.28
21
        7.01
31
        0.00
12
        3.28
22
        5.96
32
        0.00
13
        3.28
23
        5.96
33
        3.25
0
3DFACE
8
LIVING
62
  14
10
        5.28
20
        7.01
30
        3.25
11
        5.28
21
        7.01
31
        0.00
12
        3.28
22
        7.01
32
        0.00
13
        3.28
23
        7.01
33
        3.25
0
3DFACE
8
LIVING
62
  14
10
        7.43
20
        7.01
30
        3.25
11
        7.43
21
        7.01
31
        0.00
12
        5.28
22
        7.01
32
        0.00
13
        5.28
23
        7.01
33
        3.25
0
3DFACE
8
LIVING
62
  14
10
        7.43
20
       11.69
30
        3.25
11
        7.43
21
       11.69
31
        0.00
12
        7.43
22
        7.01
32
        0.00
13
        7.43
23
        7.01
33
        3.25
0
3DFACE
8
LIVING
62
  14
10
        0.00
20
        5.96
30
        3.25
11
        0.00
21
        0.00
31
        3.25
12
        1.04
22
        0.00
32
        3.25
13
        1.04
23
        5.96
33
        3.25
0
3DFACE
8
LIVING
62
  14
10
        1.04
20
        1.02
30
        3.25
11
        1.04
21
        0.00
31
        3.25
12
        5.52
22
        0.00
32
        3.25
13
        5.52
23
        1.02
33
        3.25
0
3DFACE
8
LIVING
62
  14
10
        1.04
20
        5.96
30
        3.25
11
        1.04
21
        1.02
31
        3.25
12
        3.28
22
        1.02
32
        3.25
13
        3.28
23
        5.96
33
        3.25
0
3DFACE
8
LIVING
62
  14
10
        3.28
20
        4.91
30
        3.25
11
        3.28
21
        1.02
31
        3.25
12
        7.43
22
        1.02
32
        3.25
13
        7.43
23
        4.91
33
        3.25
0
3DFACE
8
LIVING
62
  14
10
        3.28
20
        7.01
30
        3.25
11
        3.28
21
        4.91
31
        3.25
12
        7.43
22
        4.91
32
        3.25
13
        7.43
23
        7.01
33
        3.25
0
3DFACE
8
LIVING
62
  14
10
        7.43
20
        4.91
30
        3.25
11
        7.43
21
        1.02
31
        3.25
12
       11.67
22
        1.02
32
        3.25
13
       11.67
23
        4.91
33
        3.25
0
3DFACE
8
LIVING
62
  14
10
        7.43
20
        8.34
30
        3.25
11
        7.43
21
        4.91
31
        3.25
12
        8.50
22
        4.91
32
        3.25
13
        8.50
23
        8.34
33
        3.25
0
3DFACE
8
LIVING
62
  14
10
        8.50
20
        6.74
30
        3.25
11
        8.50
21
        4.91
31
        3.25
12
       11.67
22
        4.91
32
        3.25
13
       11.67
23
        6.74
33
        3.25
0
3DFACE
8
LIVING
62
  14
10
        8.50
20
        7.74
30
        3.25
11
        8.50
21
        6.74
31
        3.25
12
        9.78
22
        6.74
32
        3.25
13
        9.78
23
        7.74
33
        3.25
0
3DFACE
8
LIVING
62
  14
10
        9.78
20
        7.74
30
        3.25
11
        9.78
21
        6.74
31
        3.25
12
       11.67
22
        6.74
32
        3.25
13
       11.67
23
        7.74
33
        3.25
0
3DFACE
8
LIVING
62
  14
10
        8.50
20
        8.34
30
        3.25
11
        8.50
21
        7.74
31
        3.25
12
       11.67
22
        7.74
32
        3.25
13
       11.67
23
        8.34
33
        3.25
0
3DFACE
8
LIVING
62
  14
10
        7.43
20
       11.69
30
        3.25
11
        7.43
21
        8.34
31
        3.25
12
       11.67
22
        8.34
32
        3.25
13
       11.67
23
       11.69
33
        3.25
0
3DFACE
8
BERGING
62
  14
10
        5.28
20
       11.69
30
        3.25
11
        5.28
21
        7.29
31
        3.25
12
        7.43
22
        7.29
32
        3.25
13
        7.43
23
       11.69
33
        3.25
0
3DFACE
8
BUREAU
62
  14
10
        1.04
20
       11.69
30
        6.40
11
        1.04
21
       11.69
31
        3.25
12
        1.04
22
        7.01
32
        3.25
13
        1.04
23
        7.01
33
        6.40
0
3DFACE
8
BUREAU
62
  14
10
        1.04
20
        7.01
30
        6.40
11
        1.04
21
        7.01
31
        3.25
12
        3.28
22
        7.01
32
        3.25
13
        3.28
23
        7.01
33
        6.40
0
3DFACE
8
BUREAU
62
  14
10
        3.28
20
        7.01
30
        6.40
11
        3.28
21
        7.01
31
        3.25
12
        7.43
22
        7.01
32
        3.25
13
        7.43
23
        7.01
33
        6.40
0
3DFACE
8
BUREAU
62
  14
10
        7.43
20
       11.69
30
        6.40
11
        7.43
21
       11.69
31
        3.25
12
        1.04
22
       11.69
32
        3.25
13
        1.04
23
       11.69
33
        6.40
0
3DFACE
8
BUREAU
62
  14
10
        7.43
20
        8.34
30
        6.40
11
        7.43
21
        8.34
31
        3.25
12
        7.43
22
       11.69
32
        3.25
13
        7.43
23
       11.69
33
        6.40
0
3DFACE
8
BUREAU
62
  14
10
        7.43
20
        7.01
30
        6.40
11
        7.43
21
        7.01
31
        3.25
12
        7.43
22
        8.34
32
        3.25
13
        7.43
23
        8.34
33
        6.40
0
3DFACE
8
BUREAU
62
  14
10
        3.28
20
        9.69
30
        3.25
11
        3.28
21
        7.01
31
        3.25
12
        1.04
22
        7.01
32
        3.25
13
        1.04
23
        9.69
33
        3.25
0
3DFACE
8
BUREAU
62
  14
10
        5.28
20
       11.69
30
        3.25
11
        5.28
21
        9.69
31
        3.25
12
        1.04
22
        9.69
32
        3.25
13
        1.04
23
       11.69
33
        3.25
0
3DFACE
8
BUREAU
62
  14
10
        5.28
20
        9.69
30
        3.25
11
        5.28
21
        8.06
31
        3.25
12
        3.28
22
        8.06
32
        3.25
13
        3.28
23
        9.69
33
        3.25
0
3DFACE
8
BUREAU
62
  14
10
        5.28
20
        8.06
30
        3.25
11
        5.28
21
        7.01
31
        3.25
12
        3.68
22
        7.01
32
        3.25
13
        3.68
23
        8.06
33
        3.25
0
3DFACE
8
BUREAU
62
  14
10
        7.43
20
       11.69
30
        3.25
11
        7.43
21
        7.29
31
        3.25
12
        5.28
22
        7.29
32
        3.25
13
        5.28
23
       11.69
33
        3.25
0
3DFACE
8
BUREAU
62
  14
10
        1.04
20
       11.69
30
        6.40
11
        1.04
21
        7.01
31
        6.40
12
        7.43
22
        7.01
32
        6.40
13
        7.43
23
       11.69
33
        6.40
0
3DFACE
8
SLPKVOOR
62
  14
10
       11.67
20
        8.34
30
        3.25
11
       11.67
21
        7.74
31
        3.25
12
        8.50
22
        7.74
32
        3.25
13
        8.50
23
        8.34
33
        3.25
0
3DFACE
8
SLPKVOOR
62
  14
10
       11.67
20
       11.69
30
        3.25
11
       11.67
21
        8.34
31
        3.25
12
        7.43
22
        8.34
32
        3.25
13
        7.43
23
       11.69
33
        3.25
0
3DFACE
8
SLPKVOOR
62
  14
10
        7.43
20
       11.69
30
        6.40
11
        7.43
21
       11.69
31
        3.25
12
        7.43
22
        8.34
32
        3.25
13
        7.43
23
        8.34
33
        6.40
0
3DFACE
8
SLPKVOOR
62
  14
10
       11.67
20
       11.69
30
        6.40
11
       11.67
21
       11.69
31
        3.25
12
        7.43
22
       11.69
32
        3.25
13
        7.43
23
       11.69
33
        6.40
0
3DFACE
8
SLPKVOOR
62
  14
10
       11.67
20
        7.74
30
        6.40
11
       11.67
21
        7.74
31
        3.25
12
       11.67
22
       11.69
32
        3.25
13
       11.67
23
       11.69
33
        6.40
0
3DFACE
8
SLPKVOOR
62
  14
10
        9.78
20
        7.74
30
        6.40
11
        9.78
21
        7.74
31
        3.25
12
       11.67
22
        7.74
32
        3.25
13
       11.67
23
        7.74
33
        6.40
0
3DFACE
8
SLPKVOOR
62
  14
10
        8.50
20
        7.74
30
        6.40
11
        8.50
21
        7.74
31
        3.25
12
        9.78
22
        7.74
32
        3.25
13
        9.78
23
        7.74
33
        6.40
0
3DFACE
8
SLPKVOOR
62
  14
10
        8.50
20
        8.34
30
        6.40
11
        8.50
21
        8.34
31
        3.25
12
        8.50
22
        7.74
32
        3.25
13
        8.50
23
        7.74
33
        6.40
0
3DFACE
8
SLPKVOOR
62
  14
10
        7.43
20
        8.34
30
        6.40
11
        7.43
21
        8.34
31
        3.25
12
        8.50
22
        8.34
32
        3.25
13
        8.50
23
        8.34
33
        6.40
0
3DFACE
8
SLPKVOOR
62
  14
10
        8.50
20
        8.34
30
        6.40
11
        8.50
21
        7.74
31
        6.40
12
       11.67
22
        7.74
32
        6.40
13
       11.67
23
        8.34
33
        6.40
0
3DFACE
8
SLPKVOOR
62
  14
10
        7.43
20
       11.69
30
        6.40
11
        7.43
21
        8.34
31
        6.40
12
       11.67
22
        8.34
32
        6.40
13
       11.67
23
       11.69
33
        6.40
0
3DFACE
8
HAL
62
  14
10
        3.28
20
        7.01
30
        6.40
11
        3.28
21
        7.01
31
        3.25
12
        1.04
22
        7.01
32
        3.25
13
        1.04
23
        7.01
33
        6.40
0
3DFACE
8
HAL
62
  14
10
        3.28
20
        5.96
30
        6.40
11
        3.28
21
        5.96
31
        3.25
12
        3.28
22
        7.01
32
        3.25
13
        3.28
23
        7.01
33
        6.40
0
3DFACE
8
HAL
62
  14
10
        1.04
20
        7.01
30
        6.40
11
        1.04
21
        7.01
31
        3.25
12
        1.04
22
        5.96
32
        3.25
13
        1.04
23
        5.96
33
        6.40
0
3DFACE
8
HAL
62
  14
10
        1.04
20
        5.96
30
        6.40
11
        1.04
21
        5.96
31
        3.25
12
        3.28
22
        5.96
32
        3.25
13
        3.28
23
        5.96
33
        6.40
0
3DFACE
8
HAL
62
  14
10
        1.04
20
        7.01
30
        6.40
11
        1.04
21
        5.96
31
        6.40
12
        3.28
22
        5.96
32
        6.40
13
        3.28
23
        7.01
33
        6.40
0
3DFACE
8
NACHTHAL
62
  14
10
        3.28
20
        5.96
30
        6.40
11
        3.28
21
        5.96
31
        3.25
12
        3.28
22
        4.91
32
        3.25
13
        3.28
23
        4.91
33
        6.40
0
3DFACE
8
NACHTHAL
62
  14
10
        3.28
20
        7.01
30
        6.40
11
        3.28
21
        7.01
31
        3.25
12
        3.28
22
        5.96
32
        3.25
13
        3.28
23
        5.96
33
        6.40
0
3DFACE
8
NACHTHAL
62
  14
10
        7.43
20
        7.01
30
        6.40
11
        7.43
21
        7.01
31
        3.25
12
        3.28
22
        7.01
32
        3.25
13
        3.28
23
        7.01
33
        6.40
0
3DFACE
8
NACHTHAL
62
  14
10
        3.28
20
        4.91
30
        6.40
11
        3.28
21
        4.91
31
        3.25
12
        7.43
22
        4.91
32
        3.25
13
        7.43
23
        4.91
33
        6.40
0
3DFACE
8
NACHTHAL
62
  14
10
        7.43
20
        7.01
30
        3.25
11
        7.43
21
        4.91
31
        3.25
12
        3.28
22
        4.91
32
        3.25
13
        3.28
23
        7.01
33
        3.25
0
3DFACE
8
NACHTHAL
62
  14
10
        3.28
20
        7.01
30
        6.40
11
        3.28
21
        4.91
31
        6.40
12
        7.43
22
        4.91
32
        6.40
13
        7.43
23
        7.01
33
        6.40
0
3DFACE
8
NACHTHAL
62
  14
10
        7.43
20
        8.34
30
        6.40
11
        7.43
21
        8.34
31
        3.25
12
        7.43
22
        7.01
32
        3.25
13
        7.43
23
        7.01
33
        6.40
0
3DFACE
8
NACHTHAL
62
  14
10
        8.50
20
        8.34
30
        6.40
11
        8.50
21
        8.34
31
        3.25
12
        7.43
22
        8.34
32
        3.25
13
        7.43
23
        8.34
33
        6.40
0
3DFACE
8
NACHTHAL
62
  14
10
        8.50
20
        7.74
30
        6.40
11
        8.50
21
        7.74
31
        3.25
12
        8.50
22
        8.34
32
        3.25
13
        8.50
23
        8.34
33
        6.40
0
3DFACE
8
NACHTHAL
62
  14
10
        8.50
20
        6.74
30
        6.40
11
        8.50
21
        6.74
31
        3.25
12
        8.50
22
        7.74
32
        3.25
13
        8.50
23
        7.74
33
        6.40
0
3DFACE
8
NACHTHAL
62
  14
10
        8.50
20
        4.91
30
        6.40
11
        8.50
21
        4.91
31
        3.25
12
        8.50
22
        6.74
32
        3.25
13
        8.50
23
        6.74
33
        6.40
0
3DFACE
8
NACHTHAL
62
  14
10
        7.43
20
        4.91
30
        6.40
11
        7.43
21
        4.91
31
        3.25
12
        8.50
22
        4.91
32
        3.25
13
        8.50
23
        4.91
33
        6.40
0
3DFACE
8
NACHTHAL
62
  14
10
        8.50
20
        8.34
30
        3.25
11
        8.50
21
        4.91
31
        3.25
12
        7.43
22
        4.91
32
        3.25
13
        7.43
23
        8.34
33
        3.25
0
3DFACE
8
NACHTHAL
62
  14
10
        7.43
20
        8.34
30
        6.40
11
        7.43
21
        4.91
31
        6.40
12
        8.50
22
        4.91
32
        6.40
13
        8.50
23
        8.34
33
        6.40
0
3DFACE
8
WCBOVEN
62
  14
10
        9.78
20
        7.74
30
        3.25
11
        9.78
21
        6.74
31
        3.25
12
        8.50
22
        6.74
32
        3.25
13
        8.50
23
        7.74
33
        3.25
0
3DFACE
8
WCBOVEN
62
  14
10
        8.50
20
        7.74
30
        6.40
11
        8.50
21
        7.74
31
        3.25
12
        8.50
22
        6.74
32
        3.25
13
        8.50
23
        6.74
33
        6.40
0
3DFACE
8
WCBOVEN
62
  14
10
        9.78
20
        7.74
30
        6.40
11
        9.78
21
        7.74
31
        3.25
12
        8.50
22
        7.74
32
        3.25
13
        8.50
23
        7.74
33
        6.40
0
3DFACE
8
WCBOVEN
62
  14
10
        9.78
20
        6.74
30
        6.40
11
        9.78
21
        6.74
31
        3.25
12
        9.78
22
        7.74
32
        3.25
13
        9.78
23
        7.74
33
        6.40
0
3DFACE
8
WCBOVEN
62
  14
10
        8.50
20
        6.74
30
        6.40
11
        8.50
21
        6.74
31
        3.25
12
        9.78
22
        6.74
32
        3.25
13
        9.78
23
        6.74
33
        6.40
0
3DFACE
8
WCBOVEN
62
  14
10
        8.50
20
        7.74
30
        6.40
11
        8.50
21
        6.74
31
        6.40
12
        9.78
22
        6.74
32
        6.40
13
        9.78
23
        7.74
33
        6.40
0
3DFACE
8
BADKAMER
62
  14
10
        8.50
20
        6.74
30
        6.40
11
        8.50
21
        6.74
31
        3.25
12
        8.50
22
        4.91
32
        3.25
13
        8.50
23
        4.91
33
        6.40
0
3DFACE
8
BADKAMER
62
  14
10
        9.78
20
        6.74
30
        6.40
11
        9.78
21
        6.74
31
        3.25
12
        8.50
22
        6.74
32
        3.25
13
        8.50
23
        6.74
33
        6.40
0
3DFACE
8
BADKAMER
62
  14
10
        9.78
20
        7.74
30
        6.40
11
        9.78
21
        7.74
31
        3.25
12
        9.78
22
        6.74
32
        3.25
13
        9.78
23
        6.74
33
        6.40
0
3DFACE
8
BADKAMER
62
  14
10
       11.67
20
        7.74
30
        6.40
11
       11.67
21
        7.74
31
        3.25
12
        9.78
22
        7.74
32
        3.25
13
        9.78
23
        7.74
33
        6.40
0
3DFACE
8
BADKAMER
62
  14
10
        8.50
20
        4.91
30
        6.40
11
        8.50
21
        4.91
31
        3.25
12
       11.67
22
        4.91
32
        3.25
13
       11.67
23
        4.91
33
        6.40
0
3DFACE
8
BADKAMER
62
  14
10
       11.67
20
        7.74
30
        3.25
11
       11.67
21
        6.74
31
        3.25
12
        9.78
22
        6.74
32
        3.25
13
        9.78
23
        7.74
33
        3.25
0
3DFACE
8
BADKAMER
62
  14
10
       11.67
20
        6.74
30
        3.25
11
       11.67
21
        4.91
31
        3.25
12
        8.50
22
        4.91
32
        3.25
13
        8.50
23
        6.74
33
        3.25
0
3DFACE
8
BADKAMER
62
  14
10
       11.67
20
        4.91
30
        6.40
11
       11.67
21
        4.91
31
        3.25
12
       11.67
22
        7.74
32
        3.25
13
       11.67
23
        7.74
33
        6.40
0
3DFACE
8
BADKAMER
62
  14
10
        8.50
20
        6.74
30
        6.40
11
        8.50
21
        4.91
31
        6.40
12
       11.67
22
        4.91
32
        6.40
13
       11.67
23
        6.74
33
        6.40
0
3DFACE
8
BADKAMER
62
  14
10
        9.78
20
        7.74
30
        6.40
11
        9.78
21
        6.74
31
        6.40
12
       11.67
22
        6.74
32
        6.40
13
       11.67
23
        7.74
33
        6.40
0
3DFACE
8
SLPKOUDERS
62
  14
10
        7.43
20
        4.91
30
        3.25
11
        7.43
21
        1.02
31
        3.25
12
        3.28
22
        1.02
32
        3.25
13
        3.28
23
        4.91
33
        3.25
0
3DFACE
8
SLPKOUDERS
62
  14
10
        3.28
20
        5.96
30
        3.25
11
        3.28
21
        1.02
31
        3.25
12
        1.04
22
        1.02
32
        3.25
13
        1.04
23
        5.96
33
        3.25
0
3DFACE
8
SLPKOUDERS
62
  14
10
        3.28
20
        5.96
30
        6.40
11
        3.28
21
        5.96
31
        3.25
12
        1.04
22
        5.96
32
        3.25
13
        1.04
23
        5.96
33
        6.40
0
3DFACE
8
SLPKOUDERS
62
  14
10
        3.28
20
        4.91
30
        6.40
11
        3.28
21
        4.91
31
        3.25
12
        3.28
22
        5.96
32
        3.25
13
        3.28
23
        5.96
33
        6.40
0
3DFACE
8
SLPKOUDERS
62
  14
10
        7.43
20
        4.91
30
        6.40
11
        7.43
21
        4.91
31
        3.25
12
        3.28
22
        4.91
32
        3.25
13
        3.28
23
        4.91
33
        6.40
0
3DFACE
8
SLPKACHTER
62
  14
10
        7.43
20
        1.02
30
        6.40
11
        7.43
21
        1.02
31
        3.25
12
        7.43
22
        4.91
32
        3.25
13
        7.43
23
        4.91
33
        6.40
0
3DFACE
8
SLPKOUDERS
62
  14
10
        1.04
20
        1.02
30
        6.40
11
        1.04
21
        1.02
31
        3.25
12
        7.43
22
        1.02
32
        3.25
13
        7.43
23
        1.02
33
        6.40
0
3DFACE
8
SLPKOUDERS
62
  14
10
        1.04
20
        5.96
30
        6.40
11
        1.04
21
        5.96
31
        3.25
12
        1.04
22
        1.02
32
        3.25
13
        1.04
23
        1.02
33
        6.40
0
3DFACE
8
SLPKOUDERS
62
  14
10
        1.04
20
        5.96
30
        6.40
11
        1.04
21
        4.91
31
        6.40
12
        3.28
22
        4.91
32
        6.40
13
        3.28
23
        5.96
33
        6.40
0
3DFACE
8
SLPKOUDERS
62
  14
10
        1.04
20
        4.91
30
        6.40
11
        1.04
21
        1.02
31
        6.40
12
        3.28
22
        1.02
32
        6.40
13
        3.28
23
        4.91
33
        6.40
0
3DFACE
8
SLPKOUDERS
62
  14
10
        3.28
20
        4.91
30
        6.40
11
        3.28
21
        1.02
31
        6.40
12
        7.43
22
        1.02
32
        6.40
13
        7.43
23
        4.91
33
        6.40
0
3DFACE
8
SLPKACHTER
62
  14
10
        8.50
20
        4.91
30
        6.40
11
        8.50
21
        4.91
31
        3.25
12
        7.43
22
        4.91
32
        3.25
13
        7.43
23
        4.91
33
        6.40
0
3DFACE
8
SLPKACHTER
62
  14
10
       11.67
20
        4.91
30
        6.40
11
       11.67
21
        4.91
31
        3.25
12
        8.50
22
        4.91
32
        3.25
13
        8.50
23
        4.91
33
        6.40
0
3DFACE
8
SLPKOUDERS
62
  14
10
        7.43
20
        4.91
30
        6.40
11
        7.43
21
        4.91
31
        3.25
12
        7.43
22
        1.02
32
        3.25
13
        7.43
23
        1.02
33
        6.40
0
3DFACE
8
SLPKACHTER
62
  14
10
       11.67
20
        1.02
30
        6.40
11
       11.67
21
        1.02
31
        3.25
12
       11.67
22
        4.91
32
        3.25
13
       11.67
23
        4.91
33
        6.40
0
3DFACE
8
SLPKACHTER
62
  14
10
        7.43
20
        1.02
30
        6.40
11
        7.43
21
        1.02
31
        3.25
12
       11.67
22
        1.02
32
        3.25
13
       11.67
23
        1.02
33
        6.40
0
3DFACE
8
SLPKACHTER
62
  14
10
       11.67
20
        4.91
30
        3.25
11
       11.67
21
        1.02
31
        3.25
12
        7.43
22
        1.02
32
        3.25
13
        7.43
23
        4.91
33
        3.25
0
3DFACE
8
SLPKACHTER
62
  14
10
        7.43
20
        4.91
30
        6.40
11
        7.43
21
        1.02
31
        6.40
12
       11.67
22
        1.02
32
        6.40
13
       11.67
23
        4.91
33
        6.40
0
3DFACE
8
BUREAU
62
  14
10
        7.43
20
        7.29
30
        3.25
11
        7.43
21
        7.01
31
        3.25
12
        5.28
22
        7.01
32
        3.25
13
        5.28
23
        7.29
33
        3.25
0
3DFACE
8
BERGING
62
  14
10
        5.28
20
        7.29
30
        3.25
11
        5.28
21
        7.01
31
        3.25
12
        7.43
22
        7.01
32
        3.25
13
        7.43
23
        7.29
33
        3.25
0
3DFACE
8
BUREAU
62
  14
10
        3.68
20
        8.06
30
        3.25
11
        3.68
21
        7.01
31
        3.25
12
        3.28
22
        7.01
32
        3.25
13
        3.28
23
        8.06
33
        3.25
0
3DFACE
8
WCBENEDEN
62
  14
10
        3.28
20
        8.06
30
        3.25
11
        3.28
21
        7.01
31
        3.25
12
        3.68
22
        7.01
32
        3.25
13
        3.68
23
        8.06
33
        3.25
0
3DFACE
8
NACHTHAL
62
  14
10
        4.48
20
        6.39
30
        6.60
11
        4.48
21
        6.39
31
        6.40
12
        3.48
22
        6.39
32
        6.40
13
        3.48
23
        6.39
33
        6.60
0
3DFACE
8
NACHTHAL
62
  14
10
        3.48
20
        6.39
30
        6.60
11
        3.48
21
        6.39
31
        6.40
12
        3.48
22
        5.39
32
        6.40
13
        3.48
23
        5.39
33
        6.60
0
3DFACE
8
NACHTHAL
62
  14
10
        3.48
20
        6.39
30
        6.60
11
        3.48
21
        5.39
31
        6.60
12
        4.48
22
        5.39
32
        6.60
13
        4.48
23
        6.39
33
        6.60
0
3DFACE
8
NACHTHAL
62
  14
10
        4.48
20
        5.39
30
        6.60
11
        4.48
21
        5.39
31
        6.40
12
        4.48
22
        6.39
32
        6.40
13
        4.48
23
        6.39
33
        6.60
0
3DFACE
8
NACHTHAL
62
  14
10
        3.48
20
        5.39
30
        6.60
11
        3.48
21
        5.39
31
        6.40
12
        4.48
22
        5.39
32
        6.40
13
        4.48
23
        5.39
33
        6.60
0
3DFACE
8
NACHTHAL
62
  14
10
        5.58
20
        6.34
30
        6.60
11
        5.58
21
        5.34
31
        6.60
12
        6.58
22
        5.34
32
        6.60
13
        6.58
23
        6.34
33
        6.60
0
3DFACE
8
NACHTHAL
62
  14
10
        5.58
20
        5.34
30
        6.60
11
        5.58
21
        5.34
31
        6.40
12
        6.58
22
        5.34
32
        6.40
13
        6.58
23
        5.34
33
        6.60
0
3DFACE
8
NACHTHAL
62
  14
10
        5.58
20
        6.34
30
        6.60
11
        5.58
21
        6.34
31
        6.40
12
        5.58
22
        5.34
32
        6.40
13
        5.58
23
        5.34
33
        6.60
0
3DFACE
8
NACHTHAL
62
  14
10
        6.58
20
        6.34
30
        6.60
11
        6.58
21
        6.34
31
        6.40
12
        5.58
22
        6.34
32
        6.40
13
        5.58
23
        6.34
33
        6.60
0
3DFACE
8
NACHTHAL
62
  14
10
        6.58
20
        5.34
30
        6.60
11
        6.58
21
        5.34
31
        6.40
12
        6.58
22
        6.34
32
        6.40
13
        6.58
23
        6.34
33
        6.60
0
3DFACE
8
WCBENEDEN
62
  14
10
        4.48
20
        7.56
30
        6.40
11
        4.48
21
        7.56
31
        3.25
12
        4.58
22
        7.56
32
        3.25
13
        4.58
23
        7.56
33
        6.40
0
3DFACE
8
WCBENEDEN
62
  14
10
        4.48
20
        7.66
30
        6.40
11
        4.48
21
        7.66
31
        3.25
12
        4.48
22
        7.56
32
        3.25
13
        4.48
23
        7.56
33
        6.40
0
3DFACE
8
WCBENEDEN
62
  14
10
        4.58
20
        7.56
30
        6.40
11
        4.58
21
        7.56
31
        3.25
12
        4.58
22
        7.66
32
        3.25
13
        4.58
23
        7.66
33
        6.40
0
3DFACE
8
WCBENEDEN
62
  14
10
        4.48
20
        7.66
30
        6.40
11
        4.48
21
        7.56
31
        6.40
12
        4.58
22
        7.56
32
        6.40
13
        4.58
23
        7.66
33
        6.40
0
3DFACE
8
WCBENEDEN
62
  14
10
        4.58
20
        7.66
30
        6.40
11
        4.58
21
        7.66
31
        3.25
12
        4.48
22
        7.66
32
        3.25
13
        4.48
23
        7.66
33
        6.40
0
3DFACE
8
BUREAU
62
  14
10
        4.48
20
        7.56
30
        6.40
11
        4.48
21
        7.56
31
        3.25
12
        4.48
22
        7.66
32
        3.25
13
        4.48
23
        7.66
33
        6.40
0
3DFACE
8
BUREAU
62
  14
10
        4.48
20
        7.66
30
        6.40
11
        4.48
21
        7.66
31
        3.25
12
        4.58
22
        7.66
32
        3.25
13
        4.58
23
        7.66
33
        6.40
0
3DFACE
8
BUREAU
62
  14
10
        4.58
20
        7.66
30
        6.40
11
        4.58
21
        7.66
31
        3.25
12
        4.58
22
        7.56
32
        3.25
13
        4.58
23
        7.56
33
        6.40
0
3DFACE
8
BUREAU
62
  14
10
        4.58
20
        7.56
30
        6.40
11
        4.58
21
        7.56
31
        3.25
12
        4.48
22
        7.56
32
        3.25
13
        4.48
23
        7.56
33
        6.40
0
3DFACE
8
LIVING
62
   4
10
       11.67
20
        9.94
30
        2.54
11
       11.67
21
        9.94
31
        0.16
12
       11.67
22
       11.21
32
        0.16
13
       11.67
23
       11.21
33
        2.54
0
3DFACE
8
LIVING
62
   4
10
       11.42
20
       11.69
30
        2.59
11
       11.42
21
       11.69
31
        0.28
12
        8.96
22
       11.69
32
        0.28
13
        8.96
23
       11.69
33
        2.59
0
3DFACE
8
LIVING
62
   4
10
       11.67
20
        5.00
30
        2.44
11
       11.67
21
        5.00
31
        1.26
12
       11.67
22
        5.68
32
        1.26
13
       11.67
23
        5.68
33
        2.44
0
3DFACE
8
LIVING
62
   4
10
        7.81
20
        1.02
30
        2.09
11
        7.81
21
        1.02
31
        0.10
12
       10.13
22
        1.02
32
        0.10
13
       10.13
23
        1.02
33
        2.09
0
3DFACE
8
LIVING
62
   4
10
        5.93
20
        1.02
30
        2.25
11
        5.93
21
        1.02
31
        1.13
12
        6.99
22
        1.02
32
        1.13
13
        6.99
23
        1.02
33
        2.25
0
3DFACE
8
LIVING
62
   4
10
        5.52
20
        0.09
30
        2.61
11
        5.52
21
        0.09
31
        0.10
12
        5.52
22
        0.85
32
        0.10
13
        5.52
23
        0.85
33
        2.61
0
3DFACE
8
LIVING
62
   4
10
        0.97
20
        0.00
30
        2.56
11
        0.97
21
        0.00
31
        0.10
12
        4.32
22
        0.00
32
        0.10
13
        4.32
23
        0.00
33
        2.56
0
3DFACE
8
BUREAU
62
   4
10
        1.04
20
       11.49
30
        5.96
11
        1.04
21
       11.49
31
        3.91
12
        1.04
22
       10.59
32
        3.91
13
        1.04
23
       10.59
33
        5.96
0
3DFACE
8
BUREAU
62
   4
10
        1.04
20
       11.49
30
        6.10
11
        1.04
21
       11.49
31
        6.00
12
        1.04
22
       10.59
32
        6.00
13
        1.04
23
       10.59
33
        6.10
0
3DFACE
8
BUREAU
62
   4
10
        5.17
20
       11.69
30
        5.64
11
        5.17
21
       11.69
31
        3.48
12
        3.46
22
       11.69
32
        3.48
13
        3.46
23
       11.69
33
        5.64
0
3DFACE
8
SLPKVOOR
62
   4
10
        9.82
20
       11.69
30
        5.29
11
        9.82
21
       11.69
31
        4.07
12
        8.54
22
       11.69
32
        4.07
13
        8.54
23
       11.69
33
        5.29
0
3DFACE
8
BADKAMER
62
   4
10
       11.67
20
        5.12
30
        5.37
11
       11.67
21
        5.12
31
        4.96
12
       11.67
22
        6.87
32
        4.96
13
       11.67
23
        6.87
33
        5.37
0
3DFACE
8
SLPKACHTER
62
   4
10
        8.59
20
        1.02
30
        5.29
11
        8.59
21
        1.02
31
        3.91
12
        9.87
22
        1.02
32
        3.91
13
        9.87
23
        1.02
33
        5.29
0
3DFACE
8
SLPKOUDERS
62
   4
10
        3.75
20
        1.02
30
        5.48
11
        3.75
21
        1.02
31
        3.80
12
        5.24
22
        1.02
32
        3.80
13
        5.24
23
        1.02
33
        5.48
0
3DFACE
8
LIVING
62
   4
10
        0.00
20
        5.41
30
        2.61
11
        0.00
21
        5.41
31
        0.10
12
        0.00
22
        4.20
32
        0.10
13
        0.00
23
        4.20
33
        2.61
0
3DFACE
8
BERGING
62
   4
10
        3.28
20
        8.99
30
        2.17
11
        3.28
21
        8.99
31
        0.05
12
        3.28
22
        8.19
32
        0.05
13
        3.28
23
        8.19
33
        2.17
0
3DFACE
8
BERGING
62
   4
10
        7.43
20
        8.19
30
        2.17
11
        7.43
21
        8.19
31
        0.05
12
        7.43
22
        8.99
32
        0.05
13
        7.43
23
        8.99
33
        2.17
0
3DFACE
8
HAL
62
   4
10
        3.28
20
        8.19
30
        2.17
11
        3.28
21
        8.19
31
        0.05
12
        3.28
22
        8.99
32
        0.05
13
        3.28
23
        8.99
33
        2.17
0
3DFACE
8
HAL
62
   4
10
        3.28
20
        7.18
30
        2.17
11
        3.28
21
        7.18
31
        0.05
12
        3.28
22
        7.88
32
        0.05
13
        3.28
23
        7.88
33
        2.17
0
3DFACE
8
HAL
62
   4
10
        3.28
20
        6.08
30
        2.17
11
        3.28
21
        6.08
31
        0.05
12
        3.28
22
        6.88
32
        0.05
13
        3.28
23
        6.88
33
        2.17
0
3DFACE
8
UNKNOWN
62
   4
10
        3.28
20
        7.88
30
        2.17
11
        3.28
21
        7.88
31
        0.05
12
        3.28
22
        7.18
32
        0.05
13
        3.28
23
        7.18
33
        2.17
0
3DFACE
8
LIVING
62
   4
10
        3.28
20
        6.88
30
        2.17
11
        3.28
21
        6.88
31
        0.05
12
        3.28
22
        6.08
32
        0.05
13
        3.28
23
        6.08
33
        2.17
0
3DFACE
8
UNKNOWN
62
   4
10
        7.43
20
        8.99
30
        2.17
11
        7.43
21
        8.99
31
        0.05
12
        7.43
22
        8.19
32
        0.05
13
        7.43
23
        8.19
33
        2.17
0
3DFACE
8
SLPKACHTER
62
   4
10
        8.41
20
        4.91
30
        5.42
11
        8.41
21
        4.91
31
        3.30
12
        7.61
22
        4.91
32
        3.30
13
        7.61
23
        4.91
33
        5.42
0
3DFACE
8
SLPKOUDERS
62
   4
10
        6.16
20
        4.91
30
        5.42
11
        6.16
21
        4.91
31
        3.30
12
        5.46
22
        4.91
32
        3.30
13
        5.46
23
        4.91
33
        5.42
0
3DFACE
8
BADKAMER
62
   4
10
        8.50
20
        5.79
30
        5.42
11
        8.50
21
        5.79
31
        3.30
12
        8.50
22
        5.09
32
        3.30
13
        8.50
23
        5.09
33
        5.42
0
3DFACE
8
WCBOVEN
62
   4
10
        8.50
20
        7.59
30
        5.42
11
        8.50
21
        7.59
31
        3.30
12
        8.50
22
        6.89
32
        3.30
13
        8.50
23
        6.89
33
        5.42
0
3DFACE
8
SLPKVOOR
62
   4
10
        7.61
20
        8.34
30
        5.42
11
        7.61
21
        8.34
31
        3.30
12
        8.41
22
        8.34
32
        3.30
13
        8.41
23
        8.34
33
        5.42
0
3DFACE
8
BUREAU
62
   4
10
        7.43
20
        7.44
30
        5.42
11
        7.43
21
        7.44
31
        3.30
12
        7.43
22
        8.24
32
        3.30
13
        7.43
23
        8.24
33
        5.42
0
3DFACE
8
NACHTHAL
62
   4
10
        5.46
20
        4.91
30
        5.42
11
        5.46
21
        4.91
31
        3.30
12
        6.16
22
        4.91
32
        3.30
13
        6.16
23
        4.91
33
        5.42
0
3DFACE
8
NACHTHAL
62
   4
10
        8.50
20
        6.89
30
        5.42
11
        8.50
21
        6.89
31
        3.30
12
        8.50
22
        7.59
32
        3.30
13
        8.50
23
        7.59
33
        5.42
0
3DFACE
8
NACHTHAL
62
   4
10
        8.50
20
        5.09
30
        5.42
11
        8.50
21
        5.09
31
        3.30
12
        8.50
22
        5.79
32
        3.30
13
        8.50
23
        5.79
33
        5.42
0
3DFACE
8
NACHTHAL
62
   4
10
        7.61
20
        4.91
30
        5.42
11
        7.61
21
        4.91
31
        3.30
12
        8.41
22
        4.91
32
        3.30
13
        8.41
23
        4.91
33
        5.42
0
3DFACE
8
NACHTHAL
62
   4
10
        7.43
20
        8.24
30
        5.42
11
        7.43
21
        8.24
31
        3.30
12
        7.43
22
        7.44
32
        3.30
13
        7.43
23
        7.44
33
        5.42
0
3DFACE
8
NACHTHAL
62
   4
10
        8.41
20
        8.34
30
        5.42
11
        8.41
21
        8.34
31
        3.30
12
        7.61
22
        8.34
32
        3.30
13
        7.61
23
        8.34
33
        5.42
0
3DFACE
8
LIVING
62
   4
10
        4.37
20
        0.00
30
        1.98
11
        4.37
21
        0.00
31
        0.10
12
        5.35
22
        0.00
32
        0.10
13
        5.35
23
        0.00
33
        1.98
0
3DFACE
8
HAL
62
   4
10
        1.04
20
        8.09
30
        2.38
11
        1.04
21
        8.09
31
        0.10
12
        1.04
22
        7.29
32
        0.10
13
        1.04
23
        7.29
33
        2.38
0
3DFACE
8
HAL
62
   4
10
        1.04
20
        9.19
30
        2.60
11
        1.04
21
        9.19
31
        0.10
12
        1.04
22
        8.19
32
        0.10
13
        1.04
23
        8.19
33
        2.60
0
3DFACE
8
SLPKVOOR
62
   4
10
        9.98
20
       11.69
30
        5.70
11
        9.98
21
       11.69
31
        5.60
12
        8.38
22
       11.69
32
        5.60
13
        8.38
23
       11.69
33
        5.70
0
3DFACE
8
SLPKACHTER
62
   4
10
        8.59
20
        1.02
30
        5.44
11
        8.59
21
        1.02
31
        5.34
12
        9.87
22
        1.02
32
        5.34
13
        9.87
23
        1.02
33
        5.44
0
3DFACE
8
SLPKOUDERS
62
   4
10
        3.75
20
        1.02
30
        5.63
11
        3.75
21
        1.02
31
        5.53
12
        5.24
22
        1.02
32
        5.53
13
        5.24
23
        1.02
33
        5.63
0
3DFACE
8
LIVING
62
   4
10
        7.53
20
        1.02
30
        2.55
11
        7.53
21
        1.02
31
        2.45
12
       10.41
22
        1.02
32
        2.45
13
       10.41
23
        1.02
33
        2.55
0
3DFACE
8
LIVING
62
   4
10
        3.38
20
        6.91
30
        3.25
11
        3.38
21
        5.47
31
        3.25
12
        7.33
22
        5.47
32
        3.25
13
        7.33
23
        6.91
33
        3.25
0
3DFACE
8
NACHTHAL
62
   4
10
        7.33
20
        6.91
30
        3.25
11
        7.33
21
        5.47
31
        3.25
12
        3.38
22
        5.47
32
        3.25
13
        3.38
23
        6.91
33
        3.25
0
3DFACE
8
WCBOVEN
62
   4
10
        9.50
20
        7.14
30
        6.40
11
        9.50
21
        7.04
31
        6.40
12
        9.68
22
        7.04
32
        6.40
13
        9.68
23
        7.14
33
        6.40
0
3DFACE
8
BADKAMER
62
   4
10
       11.42
20
        5.15
30
        6.40
11
       11.42
21
        5.01
31
        6.40
12
       11.57
22
        5.01
32
        6.40
13
       11.57
23
        5.15
33
        6.40
0
3DFACE
8
BUREAU
62
   4
10
        7.18
20
        7.25
30
        6.40
11
        7.18
21
        7.11
31
        6.40
12
        7.25
22
        7.11
32
        6.40
13
        7.25
23
        7.25
33
        6.40
0
3DFACE
8
HAL
62
   4
10
        1.14
20
        6.18
30
        6.40
11
        1.14
21
        6.04
31
        6.40
12
        1.29
22
        6.04
32
        6.40
13
        1.29
23
        6.18
33
        6.40
0
3DFACE
8
LIVING
62
   4
10
        0.10
20
        5.86
30
        3.25
11
        0.10
21
        5.72
31
        3.25
12
        0.25
22
        5.72
32
        3.25
13
        0.25
23
        5.86
33
        3.25
0
3DFACE
8
SLPKOUDERS
62
   4
10
        1.49
20
        5.96
30
        5.94
11
        1.49
21
        5.96
31
        5.84
12
        1.39
22
        5.96
32
        5.84
13
        1.39
23
        5.96
33
        5.94
0
3DFACE
8
UNKNOWN
62
   4
10
        1.39
20
        5.96
30
        5.94
11
        1.39
21
        5.96
31
        5.84
12
        1.49
22
        5.96
32
        5.84
13
        1.49
23
        5.96
33
        5.94
0
3DFACE
8
NACHTHAL
62
   4
10
        5.59
20
        5.34
30
        6.59
11
        5.59
21
        5.34
31
        6.41
12
        6.57
22
        5.34
32
        6.41
13
        6.57
23
        5.34
33
        6.59
0
3DFACE
8
NACHTHAL
62
   4
10
        6.58
20
        5.35
30
        6.59
11
        6.58
21
        5.35
31
        6.41
12
        6.58
22
        6.33
32
        6.41
13
        6.58
23
        6.33
33
        6.59
0
3DFACE
8
NACHTHAL
62
   4
10
        5.58
20
        6.33
30
        6.59
11
        5.58
21
        6.33
31
        6.41
12
        5.58
22
        5.35
32
        6.41
13
        5.58
23
        5.35
33
        6.59
0
3DFACE
8
NACHTHAL
62
   4
10
        6.57
20
        6.34
30
        6.59
11
        6.57
21
        6.34
31
        6.41
12
        5.59
22
        6.34
32
        6.41
13
        5.59
23
        6.34
33
        6.59
0
3DFACE
8
NACHTHAL
62
   4
10
        5.67
20
        6.25
30
        6.60
11
        5.67
21
        5.43
31
        6.60
12
        6.49
22
        5.43
32
        6.60
13
        6.49
23
        6.25
33
        6.60
0
3DFACE
8
NACHTHAL
62
   4
10
        3.57
20
        6.30
30
        6.60
11
        3.57
21
        5.48
31
        6.60
12
        4.39
22
        5.48
32
        6.60
13
        4.39
23
        6.30
33
        6.60
0
3DFACE
8
NACHTHAL
62
   4
10
        4.48
20
        5.40
30
        6.59
11
        4.48
21
        5.40
31
        6.41
12
        4.48
22
        6.38
32
        6.41
13
        4.48
23
        6.38
33
        6.59
0
3DFACE
8
NACHTHAL
62
   4
10
        3.49
20
        5.39
30
        6.59
11
        3.49
21
        5.39
31
        6.41
12
        4.47
22
        5.39
32
        6.41
13
        4.47
23
        5.39
33
        6.59
0
3DFACE
8
NACHTHAL
62
   4
10
        4.47
20
        6.39
30
        6.59
11
        4.47
21
        6.39
31
        6.41
12
        3.49
22
        6.39
32
        6.41
13
        3.49
23
        6.39
33
        6.59
0
3DFACE
8
NACHTHAL
62
   4
10
        3.48
20
        6.38
30
        6.59
11
        3.48
21
        6.38
31
        6.41
12
        3.48
22
        5.40
32
        6.41
13
        3.48
23
        5.40
33
        6.59
0
3DFACE
8
SLPKOUDERS
62
   4
10
        5.36
20
        4.91
30
        5.42
11
        5.36
21
        4.91
31
        3.30
12
        3.38
22
        4.91
32
        3.30
13
        3.38
23
        4.91
33
        5.42
0
3DFACE
8
NACHTHAL
62
   4
10
        3.38
20
        4.91
30
        5.42
11
        3.38
21
        4.91
31
        3.30
12
        5.36
22
        4.91
32
        3.30
13
        5.36
23
        4.91
33
        5.42
0
3DFACE
8
NACHTHAL
62
   4
10
        6.18
20
        7.01
30
        5.42
11
        6.18
21
        7.01
31
        3.30
12
        3.38
22
        7.01
32
        3.30
13
        3.38
23
        7.01
33
        5.42
0
3DFACE
8
BUREAU
62
   4
10
        3.38
20
        7.01
30
        5.42
11
        3.38
21
        7.01
31
        3.30
12
        6.18
22
        7.01
32
        3.30
13
        6.18
23
        7.01
33
        5.42
0
3DFACE
8
LIVING
62
   4
10
        4.37
20
        0.00
30
        2.51
11
        4.37
21
        0.00
31
        2.23
12
        5.35
22
        0.00
32
        2.23
13
        5.35
23
        0.00
33
        2.51
0
3DFACE
8
LIVING
62
   4
10
       11.42
20
        1.26
30
        3.25
11
       11.42
21
        1.12
31
        3.25
12
       11.57
22
        1.12
32
        3.25
13
       11.57
23
        1.26
33
        3.25
0
3DFACE
8
SLPKACHTER
62
   4
10
       11.42
20
        1.26
30
        3.25
11
       11.57
21
        1.26
31
        3.25
12
       11.57
22
        1.12
32
        3.25
13
       11.42
23
        1.12
33
        3.25
0
3DFACE
8
SLPKACHTER
62
   4
10
        7.53
20
        1.26
30
        6.40
11
        7.53
21
        1.12
31
        6.40
12
        7.68
22
        1.12
32
        6.40
13
        7.68
23
        1.26
33
        6.40
0
3DFACE
8
SLPKVOOR
62
   4
10
        7.53
20
       11.59
30
        6.40
11
        7.53
21
       11.45
31
        6.40
12
        7.68
22
       11.45
32
        6.40
13
        7.68
23
       11.59
33
        6.40
0
3DFACE
8
SLPKOUDERS
62
   4
10
        7.18
20
        1.26
30
        6.40
11
        7.18
21
        1.12
31
        6.40
12
        7.33
22
        1.12
32
        6.40
13
        7.33
23
        1.26
33
        6.40
0
3DFACE
8
BUREAU
62
   4
10
        1.14
20
       11.59
30
        6.40
11
        1.14
21
       11.45
31
        6.40
12
        1.29
22
       11.45
32
        6.40
13
        1.29
23
       11.59
33
        6.40
0
TEXT
8
BERGING-FLOWINFO
10
        0.00
20
       -0.30
30
        0.00
40
 5.0000000000000003E-002
1
BERGING-MeanMassFlowIn: 0.0014/0kg/s*m3 ; BERGING-MeanMassFlowOut: 0.0028/0kg/s*m3
0
TEXT
8
HAL-FLOWINFO
10
        0.00
20
       -0.40
30
        0.00
40
 5.0000000000000003E-002
1
HAL-MeanMassFlowIn: 0.00092/0kg/s*m3 ; HAL-MeanMassFlowOut: 0.0025/0kg/s*m3
0
TEXT
8
WCBENEDEN-FLOWINFO
10
        0.00
20
       -0.50
30
        0.00
40
 5.0000000000000003E-002
1
WCBENEDEN-MeanMassFlowIn: 2.1E-322/0kg/s*m3 ; WCBENEDEN-MeanMassFlowOut: 0.0014/0kg/s*m3
0
TEXT
8
LIVING-FLOWINFO
10
        0.00
20
       -0.60
30
        0.00
40
 5.0000000000000003E-002
1
LIVING-MeanMassFlowIn: 0.034/0kg/s*m3 ; LIVING-MeanMassFlowOut: 0.077/0kg/s*m3
0
TEXT
8
BUREAU-FLOWINFO
10
        0.00
20
       -0.70
30
        0.00
40
 5.0000000000000003E-002
1
BUREAU-MeanMassFlowIn: 0.0097/0kg/s*m3 ; BUREAU-MeanMassFlowOut: 0.019/0kg/s*m3
0
TEXT
8
SLPKVOOR-FLOWINFO
10
        0.00
20
       -0.80
30
        0.00
40
 5.0000000000000003E-002
1
SLPKVOOR-MeanMassFlowIn: 0.0055/0kg/s*m3 ; SLPKVOOR-MeanMassFlowOut: 0.011/0kg/s*m3
0
TEXT
8
NACHTHAL-FLOWINFO
10
        0.00
20
       -0.90
30
        0.00
40
 5.0000000000000003E-002
1
NACHTHAL-MeanMassFlowIn: 0.00066/0kg/s*m3 ; NACHTHAL-MeanMassFlowOut: 0.028/0kg/s*m3
0
TEXT
8
WCBOVEN-FLOWINFO
10
        0.00
20
       -1.00
30
        0.00
40
 5.0000000000000003E-002
1
WCBOVEN-MeanMassFlowIn: 2.1E-322/0kg/s*m3 ; WCBOVEN-MeanMassFlowOut: 0.0014/0kg/s*m3
0
TEXT
8
BADKAMER-FLOWINFO
10
        0.00
20
       -1.10
30
        0.00
40
 5.0000000000000003E-002
1
BADKAMER-MeanMassFlowIn: 4.2E-322/0kg/s*m3 ; BADKAMER-MeanMassFlowOut: 0.003/0kg/s*m3
0
TEXT
8
SLPKOUDERS-FLOWINFO
10
        0.00
20
       -1.20
30
        0.00
40
 5.0000000000000003E-002
1
SLPKOUDERS-MeanMassFlowIn: 0.000024/0kg/s*m3 ; SLPKOUDERS-MeanMassFlowOut: 0.014/0kg/s*m3
0
TEXT
8
SLPKACHTER-FLOWINFO
10
        0.00
20
       -1.30
30
        0.00
40
 5.0000000000000003E-002
1
SLPKACHTER-MeanMassFlowIn: 0.000024/0kg/s*m3 ; SLPKACHTER-MeanMassFlowOut: 0.0076/0kg/s*m3
0
LINE
8
MEANLEGEND
62
   6
39
0
10
       -2.50
20
        0.00
30
        0.00
11
       -2.38
21
        0.00
31
        0.00
0
LINE
8
MAXLEGEND
62
  42
39
0
10
       -2.50
20
        0.00
30
        0.00
11
       -2.38
21
        0.00
31
        0.00
0
LINE
8
MEANLEGEND
62
   8
39
0
10
       -2.50
20
        0.10
30
        0.00
11
       -2.36
21
        0.10
31
        0.00
0
LINE
8
MAXLEGEND
62
  44
39
0
10
       -2.50
20
        0.10
30
        0.00
11
       -2.36
21
        0.10
31
        0.00
0
LINE
8
MEANLEGEND
62
  10
39
0
10
       -2.50
20
        0.20
30
        0.00
11
       -2.34
21
        0.20
31
        0.00
0
LINE
8
MAXLEGEND
62
  46
39
0
10
       -2.50
20
        0.20
30
        0.00
11
       -2.34
21
        0.20
31
        0.00
0
LINE
8
MEANLEGEND
62
  12
39
0
10
       -2.50
20
        0.30
30
        0.00
11
       -2.32
21
        0.30
31
        0.00
0
LINE
8
MAXLEGEND
62
  48
39
0
10
       -2.50
20
        0.30
30
        0.00
11
       -2.32
21
        0.30
31
        0.00
0
LINE
8
MEANLEGEND
62
  14
39
0
10
       -2.50
20
        0.40
30
        0.00
11
       -2.30
21
        0.40
31
        0.00
0
LINE
8
MAXLEGEND
62
  50
39
0
10
       -2.50
20
        0.40
30
        0.00
11
       -2.30
21
        0.40
31
        0.00
0
LINE
8
MEANLEGEND
62
  16
39
0
10
       -2.50
20
        0.50
30
        0.00
11
       -2.28
21
        0.50
31
        0.00
0
LINE
8
MAXLEGEND
62
  52
39
0
10
       -2.50
20
        0.50
30
        0.00
11
       -2.28
21
        0.50
31
        0.00
0
LINE
8
MEANLEGEND
62
  18
39
0
10
       -2.50
20
        0.60
30
        0.00
11
       -2.26
21
        0.60
31
        0.00
0
LINE
8
MAXLEGEND
62
  54
39
0
10
       -2.50
20
        0.60
30
        0.00
11
       -2.26
21
        0.60
31
        0.00
0
LINE
8
MEANLEGEND
62
  20
39
0
10
       -2.50
20
        0.70
30
        0.00
11
       -2.24
21
        0.70
31
        0.00
0
LINE
8
MAXLEGEND
62
  56
39
0
10
       -2.50
20
        0.70
30
        0.00
11
       -2.24
21
        0.70
31
        0.00
0
LINE
8
MEANLEGEND
62
  22
39
0
10
       -2.50
20
        0.80
30
        0.00
11
       -2.22
21
        0.80
31
        0.00
0
LINE
8
MAXLEGEND
62
  58
39
0
10
       -2.50
20
        0.80
30
        0.00
11
       -2.22
21
        0.80
31
        0.00
0
LINE
8
MEANLEGEND
62
  24
39
0
10
       -2.50
20
        0.90
30
        0.00
11
       -2.20
21
        0.90
31
        0.00
0
LINE
8
MAXLEGEND
62
  60
39
0
10
       -2.50
20
        0.90
30
        0.00
11
       -2.20
21
        0.90
31
        0.00
0
TEXT
8
MEANLEGEND
10
       -2.10
20
        0.00
30
        0.00
40
 5.0000000000000003E-002
1
0.1 kg/s
0
TEXT
8
MAXLEGEND
10
       -2.10
20
        0.00
30
        0.00
40
 5.0000000000000003E-002
1
0.1 kg/s
0
TEXT
8
MEANLEGEND
10
       -2.10
20
        0.10
30
        0.00
40
 5.0000000000000003E-002
1
0.2 kg/s
0
TEXT
8
MAXLEGEND
10
       -2.10
20
        0.10
30
        0.00
40
 5.0000000000000003E-002
1
0.2 kg/s
0
TEXT
8
MEANLEGEND
10
       -2.10
20
        0.20
30
        0.00
40
 5.0000000000000003E-002
1
0.3 kg/s
0
TEXT
8
MAXLEGEND
10
       -2.10
20
        0.20
30
        0.00
40
 5.0000000000000003E-002
1
0.3 kg/s
0
TEXT
8
MEANLEGEND
10
       -2.10
20
        0.30
30
        0.00
40
 5.0000000000000003E-002
1
0.4 kg/s
0
TEXT
8
MAXLEGEND
10
       -2.10
20
        0.30
30
        0.00
40
 5.0000000000000003E-002
1
0.4 kg/s
0
TEXT
8
MEANLEGEND
10
       -2.10
20
        0.40
30
        0.00
40
 5.0000000000000003E-002
1
0.5 kg/s
0
TEXT
8
MAXLEGEND
10
       -2.10
20
        0.40
30
        0.00
40
 5.0000000000000003E-002
1
0.5 kg/s
0
TEXT
8
MEANLEGEND
10
       -2.10
20
        0.50
30
        0.00
40
 5.0000000000000003E-002
1
0.6 kg/s
0
TEXT
8
MAXLEGEND
10
       -2.10
20
        0.50
30
        0.00
40
 5.0000000000000003E-002
1
0.6 kg/s
0
TEXT
8
MEANLEGEND
10
       -2.10
20
        0.60
30
        0.00
40
 5.0000000000000003E-002
1
0.7 kg/s
0
TEXT
8
MAXLEGEND
10
       -2.10
20
        0.60
30
        0.00
40
 5.0000000000000003E-002
1
0.7 kg/s
0
TEXT
8
MEANLEGEND
10
       -2.10
20
        0.70
30
        0.00
40
 5.0000000000000003E-002
1
0.8 kg/s
0
TEXT
8
MAXLEGEND
10
       -2.10
20
        0.70
30
        0.00
40
 5.0000000000000003E-002
1
0.8 kg/s
0
TEXT
8
MEANLEGEND
10
       -2.10
20
        0.80
30
        0.00
40
 5.0000000000000003E-002
1
0.9 kg/s
0
TEXT
8
MAXLEGEND
10
       -2.10
20
        0.80
30
        0.00
40
 5.0000000000000003E-002
1
0.9 kg/s
0
TEXT
8
MEANLEGEND
10
       -2.10
20
        0.90
30
        0.00
40
 5.0000000000000003E-002
1
1 kg/s
0
TEXT
8
MAXLEGEND
10
       -2.10
20
        0.90
30
        0.00
40
 5.0000000000000003E-002
1
1 kg/s
0
CIRCLE
8
NOORDPIJL
62
   3
10
       -1.00
20
        0.30
30
        0.00
40
        0.30
0
LINE
8
NOORDPIJL
62
   3
39
0
10
       -1.00
20
        0.30
30
        0.00
11
       -1.19
21
        0.53
31
        0.00
0
TEXT
8
NOORDPIJL
10
       -1.19
20
        0.53
30
        0.00
40
 1.0000000000000001E-001
1
N
0
LINE
8
WIND
62
   1
39
0
10
       -1.00
20
        0.30
30
        0.00
11
       -0.81
21
        0.07
31
        0.00
0
LINE
8
WIND
62
 254
39
0
10
       -1.00
20
        0.30
30
        0.00
11
       -1.19
21
        0.53
31
        0.00
0
LINE
8
WIND
62
 254
39
0
10
       -1.00
20
        0.30
30
        0.00
11
       -1.19
21
        0.53
31
        0.00
0
LINE
8
WIND
62
   1
39
0
10
       -1.00
20
        0.30
30
        0.00
11
       -0.95
21
        0.30
31
        0.00
0
LINE
8
WIND
62
   1
39
0
10
       -1.00
20
        0.30
30
        0.00
11
       -1.00
21
        0.25
31
        0.00
0
TEXT
8
WIND
10
       -0.81
20
        0.07
30
        0.00
40
 1.0000000000000001E-001
1
Wind
0
CIRCLE
8
BERGING-CENTERPOINTS
62
   0
10
        1.04
20
       10.69
30
        1.63
40
        0.02
0
LINE
8
BERGING-NEGATIVENORMALS
62
   1
39
0
10
        1.04
20
       10.69
30
        1.63
11
        1.54
21
       10.69
31
        1.63
0
LINE
8
BERGING-NORMALS
62
   1
39
0
10
        1.04
20
       10.69
30
        1.63
11
        0.54
21
       10.69
31
        1.63
0
CIRCLE
8
BERGING-MAXMASSFLOWCIRCLESOUT
62
   1
10
        0.54
20
       10.69
30
        1.63
40
        0.13
0
TEXT
8
BERGING-MAXTEXT
10
        0.54
20
       10.69
30
        1.63
40
 2.5000000000000001E-002
1
0.0028 kg/s
0
CIRCLE
8
BERGING-CENTERPOINTS
62
   0
10
        4.28
20
        8.06
30
        1.63
40
        0.02
0
LINE
8
BERGING-NEGATIVENORMALS
62
   1
39
0
10
        4.28
20
        8.06
30
        1.63
11
        4.28
21
        8.56
31
        1.63
0
LINE
8
BERGING-NORMALS
62
   1
39
0
10
        4.28
20
        8.06
30
        1.63
11
        4.28
21
        7.56
31
        1.63
0
CIRCLE
8
BERGING-MAXMASSFLOWCIRCLESOUT
62
   1
10
        4.28
20
        7.56
30
        1.63
40
        0.00
0
TEXT
8
BERGING-MAXTEXT
10
        4.28
20
        7.56
30
        1.63
40
 2.5000000000000001E-002
1
0 kg/s
0
CIRCLE
8
LIVING-CENTERPOINTS
62
   0
10
       11.67
20
        6.36
30
        1.63
40
        0.02
0
LINE
8
LIVING-NEGATIVENORMALS
62
   1
39
0
10
       11.67
20
        6.36
30
        1.63
11
       11.17
21
        6.36
31
        1.63
0
LINE
8
LIVING-NORMALS
62
   1
39
0
10
       11.67
20
        6.36
30
        1.63
11
       12.17
21
        6.36
31
        1.63
0
CIRCLE
8
LIVING-MAXMASSFLOWCIRCLESOUT
62
   1
10
       12.17
20
        6.36
30
        1.63
40
        0.16
0
TEXT
8
LIVING-MAXTEXT
10
       12.17
20
        6.36
30
        1.63
40
 2.5000000000000001E-002
1
0.0043 kg/s
0
CIRCLE
8
SLPKVOOR-CENTERPOINTS
62
   0
10
        9.14
20
        7.74
30
        4.83
40
        0.02
0
LINE
8
SLPKVOOR-NEGATIVENORMALS
62
   1
39
0
10
        9.14
20
        7.74
30
        4.83
11
        9.14
21
        8.24
31
        4.83
0
LINE
8
SLPKVOOR-NORMALS
62
   1
39
0
10
        9.14
20
        7.74
30
        4.83
11
        9.14
21
        7.24
31
        4.83
0
CIRCLE
8
SLPKVOOR-MAXMASSFLOWCIRCLESOUT
62
   1
10
        9.14
20
        7.24
30
        4.83
40
        0.03
0
TEXT
8
SLPKVOOR-MAXTEXT
10
        9.14
20
        7.24
30
        4.83
40
 2.5000000000000001E-002
1
0.00012 kg/s
0
CIRCLE
8
SLPKVOOR-CENTERPOINTS
62
   0
10
        9.55
20
       10.02
30
        6.40
40
        0.02
0
LINE
8
SLPKVOOR-NEGATIVENORMALS
62
   1
39
0
10
        9.55
20
       10.02
30
        6.40
11
        9.55
21
       10.02
31
        5.90
0
LINE
8
SLPKVOOR-NORMALS
62
   1
39
0
10
        9.55
20
       10.02
30
        6.40
11
        9.55
21
       10.02
31
        6.90
0
CIRCLE
8
SLPKVOOR-MAXMASSFLOWCIRCLESOUT
62
   1
10
        9.55
20
       10.02
30
        6.90
40
        0.01
0
TEXT
8
SLPKVOOR-MAXTEXT
10
        9.55
20
       10.02
30
        6.90
40
 2.5000000000000001E-002
1
0.000019 kg/s
0
CIRCLE
8
WCBOVEN-CENTERPOINTS
62
   0
10
        9.14
20
        7.24
30
        6.40
40
        0.02
0
LINE
8
WCBOVEN-NEGATIVENORMALS
62
   1
39
0
10
        9.14
20
        7.24
30
        6.40
11
        9.14
21
        7.24
31
        5.90
0
LINE
8
WCBOVEN-NORMALS
62
   1
39
0
10
        9.14
20
        7.24
30
        6.40
11
        9.14
21
        7.24
31
        6.90
0
CIRCLE
8
WCBOVEN-MAXMASSFLOWCIRCLESOUT
62
   1
10
        9.14
20
        7.24
30
        6.90
40
        0.09
0
TEXT
8
WCBOVEN-MAXTEXT
10
        9.14
20
        7.24
30
        6.90
40
 2.5000000000000001E-002
1
0.0014 kg/s
0
CIRCLE
8
BADKAMER-CENTERPOINTS
62
   0
10
       10.73
20
        7.24
30
        6.40
40
        0.02
0
LINE
8
BADKAMER-NEGATIVENORMALS
62
   1
39
0
10
       10.73
20
        7.24
30
        6.40
11
       10.73
21
        7.24
31
        5.90
0
LINE
8
BADKAMER-NORMALS
62
   1
39
0
10
       10.73
20
        7.24
30
        6.40
11
       10.73
21
        7.24
31
        6.90
0
CIRCLE
8
BADKAMER-MAXMASSFLOWCIRCLESOUT
62
   1
10
       10.73
20
        7.24
30
        6.90
40
        0.13
0
TEXT
8
BADKAMER-MAXTEXT
10
       10.73
20
        7.24
30
        6.90
40
 2.5000000000000001E-002
1
0.0028 kg/s
0
CIRCLE
8
SLPKOUDERS-CENTERPOINTS
62
   0
10
        2.16
20
        2.97
30
        6.40
40
        0.02
0
LINE
8
SLPKOUDERS-NEGATIVENORMALS
62
   1
39
0
10
        2.16
20
        2.97
30
        6.40
11
        2.16
21
        2.97
31
        5.90
0
LINE
8
SLPKOUDERS-NORMALS
62
   1
39
0
10
        2.16
20
        2.97
30
        6.40
11
        2.16
21
        2.97
31
        6.90
0
CIRCLE
8
SLPKOUDERS-MAXMASSFLOWCIRCLESOUT
62
   1
10
        2.16
20
        2.97
30
        6.90
40
        0.01
0
TEXT
8
SLPKOUDERS-MAXTEXT
10
        2.16
20
        2.97
30
        6.90
40
 2.5000000000000001E-002
1
0.000019 kg/s
0
CIRCLE
8
SLPKACHTER-CENTERPOINTS
62
   0
10
        9.55
20
        2.97
30
        6.40
40
        0.02
0
LINE
8
SLPKACHTER-NEGATIVENORMALS
62
   1
39
0
10
        9.55
20
        2.97
30
        6.40
11
        9.55
21
        2.97
31
        5.90
0
LINE
8
SLPKACHTER-NORMALS
62
   1
39
0
10
        9.55
20
        2.97
30
        6.40
11
        9.55
21
        2.97
31
        6.90
0
CIRCLE
8
SLPKACHTER-MAXMASSFLOWCIRCLESOUT
62
   1
10
        9.55
20
        2.97
30
        6.90
40
        0.01
0
TEXT
8
SLPKACHTER-MAXTEXT
10
        9.55
20
        2.97
30
        6.90
40
 2.5000000000000001E-002
1
0.000019 kg/s
0
CIRCLE
8
WCBENEDEN-CENTERPOINTS
62
   0
10
        4.53
20
        7.61
30
        6.40
40
        0.02
0
LINE
8
WCBENEDEN-NEGATIVENORMALS
62
   1
39
0
10
        4.53
20
        7.61
30
        6.40
11
        4.53
21
        7.61
31
        5.90
0
LINE
8
WCBENEDEN-NORMALS
62
   1
39
0
10
        4.53
20
        7.61
30
        6.40
11
        4.53
21
        7.61
31
        6.90
0
CIRCLE
8
WCBENEDEN-MAXMASSFLOWCIRCLESOUT
62
   1
10
        4.53
20
        7.61
30
        6.90
40
        0.09
0
TEXT
8
WCBENEDEN-MAXTEXT
10
        4.53
20
        7.61
30
        6.90
40
 2.5000000000000001E-002
1
0.0014 kg/s
0
CIRCLE
8
LIVING-CENTERPOINTS
62
   0
10
       11.67
20
       10.57
30
        1.35
40
        0.02
0
LINE
8
LIVING-NEGATIVENORMALS
62
   3
39
0
10
       11.67
20
       10.57
30
        1.35
11
       11.17
21
       10.57
31
        1.35
0
CIRCLE
8
LIVING-MAXMASSFLOWCIRCLESIN
62
   3
10
       11.17
20
       10.57
30
        1.35
40
        0.08
0
TEXT
8
LIVING-MAXTEXT
10
       11.17
20
       10.57
30
        1.35
40
 2.5000000000000001E-002
1
0.001 kg/s
0
LINE
8
LIVING-NORMALS
62
 252
39
0
10
       11.67
20
       10.57
30
        1.35
11
       12.17
21
       10.57
31
        1.35
0
CIRCLE
8
LIVING-MAXMASSFLOWCIRCLESOUT
62
 252
10
       12.17
20
       10.57
30
        1.35
40
        0.00
0
TEXT
8
LIVING-MAXTEXT
10
       12.17
20
       10.57
30
        1.35
40
 2.5000000000000001E-002
1
0 kg/s
0
CIRCLE
8
LIVING-CENTERPOINTS
62
   0
10
       10.19
20
       11.69
30
        1.43
40
        0.02
0
LINE
8
LIVING-NEGATIVENORMALS
62
   3
39
0
10
       10.19
20
       11.69
30
        1.43
11
       10.19
21
       11.19
31
        1.43
0
CIRCLE
8
LIVING-MAXMASSFLOWCIRCLESIN
62
   3
10
       10.19
20
       11.19
30
        1.43
40
        0.09
0
TEXT
8
LIVING-MAXTEXT
10
       10.19
20
       11.19
30
        1.43
40
 2.5000000000000001E-002
1
0.0013 kg/s
0
LINE
8
LIVING-NORMALS
62
 252
39
0
10
       10.19
20
       11.69
30
        1.43
11
       10.19
21
       12.19
31
        1.43
0
CIRCLE
8
LIVING-MAXMASSFLOWCIRCLESOUT
62
 252
10
       10.19
20
       12.19
30
        1.43
40
        0.00
0
TEXT
8
LIVING-MAXTEXT
10
       10.19
20
       12.19
30
        1.43
40
 2.5000000000000001E-002
1
0 kg/s
0
CIRCLE
8
LIVING-CENTERPOINTS
62
   0
10
       11.67
20
        5.34
30
        1.85
40
        0.02
0
LINE
8
LIVING-NEGATIVENORMALS
62
   3
39
0
10
       11.67
20
        5.34
30
        1.85
11
       11.17
21
        5.34
31
        1.85
0
CIRCLE
8
LIVING-MAXMASSFLOWCIRCLESIN
62
   3
10
       11.17
20
        5.34
30
        1.85
40
        0.06
0
TEXT
8
LIVING-MAXTEXT
10
       11.17
20
        5.34
30
        1.85
40
 2.5000000000000001E-002
1
0.00054 kg/s
0
LINE
8
LIVING-NORMALS
62
 252
39
0
10
       11.67
20
        5.34
30
        1.85
11
       12.17
21
        5.34
31
        1.85
0
CIRCLE
8
LIVING-MAXMASSFLOWCIRCLESOUT
62
 252
10
       12.17
20
        5.34
30
        1.85
40
        0.00
0
TEXT
8
LIVING-MAXTEXT
10
       12.17
20
        5.34
30
        1.85
40
 2.5000000000000001E-002
1
0 kg/s
0
CIRCLE
8
LIVING-CENTERPOINTS
62
   0
10
        8.97
20
        1.02
30
        1.09
40
        0.02
0
LINE
8
LIVING-NEGATIVENORMALS
62
   3
39
0
10
        8.97
20
        1.02
30
        1.09
11
        8.97
21
        1.52
31
        1.09
0
CIRCLE
8
LIVING-MAXMASSFLOWCIRCLESIN
62
   3
10
        8.97
20
        1.52
30
        1.09
40
        0.09
0
TEXT
8
LIVING-MAXTEXT
10
        8.97
20
        1.52
30
        1.09
40
 2.5000000000000001E-002
1
0.0014 kg/s
0
LINE
8
LIVING-NORMALS
62
 252
39
0
10
        8.97
20
        1.02
30
        1.09
11
        8.97
21
        0.52
31
        1.09
0
CIRCLE
8
LIVING-MAXMASSFLOWCIRCLESOUT
62
 252
10
        8.97
20
        0.52
30
        1.09
40
        0.00
0
TEXT
8
LIVING-MAXTEXT
10
        8.97
20
        0.52
30
        1.09
40
 2.5000000000000001E-002
1
0 kg/s
0
CIRCLE
8
LIVING-CENTERPOINTS
62
   0
10
        6.46
20
        1.02
30
        1.69
40
        0.02
0
LINE
8
LIVING-NEGATIVENORMALS
62
   3
39
0
10
        6.46
20
        1.02
30
        1.69
11
        6.46
21
        1.52
31
        1.69
0
CIRCLE
8
LIVING-MAXMASSFLOWCIRCLESIN
62
   3
10
        6.46
20
        1.52
30
        1.69
40
        0.06
0
TEXT
8
LIVING-MAXTEXT
10
        6.46
20
        1.52
30
        1.69
40
 2.5000000000000001E-002
1
0.00067 kg/s
0
LINE
8
LIVING-NORMALS
62
 252
39
0
10
        6.46
20
        1.02
30
        1.69
11
        6.46
21
        0.52
31
        1.69
0
CIRCLE
8
LIVING-MAXMASSFLOWCIRCLESOUT
62
 252
10
        6.46
20
        0.52
30
        1.69
40
        0.00
0
TEXT
8
LIVING-MAXTEXT
10
        6.46
20
        0.52
30
        1.69
40
 2.5000000000000001E-002
1
0 kg/s
0
CIRCLE
8
LIVING-CENTERPOINTS
62
   0
10
        5.52
20
        0.47
30
        1.36
40
        0.02
0
LINE
8
LIVING-NEGATIVENORMALS
62
   3
39
0
10
        5.52
20
        0.47
30
        1.36
11
        5.02
21
        0.47
31
        1.36
0
CIRCLE
8
LIVING-MAXMASSFLOWCIRCLESIN
62
   3
10
        5.02
20
        0.47
30
        1.36
40
        0.07
0
TEXT
8
LIVING-MAXTEXT
10
        5.02
20
        0.47
30
        1.36
40
 2.5000000000000001E-002
1
0.00089 kg/s
0
LINE
8
LIVING-NORMALS
62
 252
39
0
10
        5.52
20
        0.47
30
        1.36
11
        6.02
21
        0.47
31
        1.36
0
CIRCLE
8
LIVING-MAXMASSFLOWCIRCLESOUT
62
 252
10
        6.02
20
        0.47
30
        1.36
40
        0.00
0
TEXT
8
LIVING-MAXTEXT
10
        6.02
20
        0.47
30
        1.36
40
 2.5000000000000001E-002
1
0 kg/s
0
CIRCLE
8
LIVING-CENTERPOINTS
62
   0
10
        2.65
20
        0.00
30
        1.33
40
        0.02
0
LINE
8
LIVING-NEGATIVENORMALS
62
   3
39
0
10
        2.65
20
        0.00
30
        1.33
11
        2.65
21
        0.50
31
        1.33
0
CIRCLE
8
LIVING-MAXMASSFLOWCIRCLESIN
62
   3
10
        2.65
20
        0.50
30
        1.33
40
        0.10
0
TEXT
8
LIVING-MAXTEXT
10
        2.65
20
        0.50
30
        1.33
40
 2.5000000000000001E-002
1
0.0016 kg/s
0
LINE
8
LIVING-NORMALS
62
 252
39
0
10
        2.65
20
        0.00
30
        1.33
11
        2.65
21
       -0.50
31
        1.33
0
CIRCLE
8
LIVING-MAXMASSFLOWCIRCLESOUT
62
 252
10
        2.65
20
       -0.50
30
        1.33
40
        0.00
0
TEXT
8
LIVING-MAXTEXT
10
        2.65
20
       -0.50
30
        1.33
40
 2.5000000000000001E-002
1
0 kg/s
0
CIRCLE
8
BUREAU-CENTERPOINTS
62
   0
10
        1.04
20
       11.04
30
        4.93
40
        0.02
0
LINE
8
BUREAU-NEGATIVENORMALS
62
   3
39
0
10
        1.04
20
       11.04
30
        4.93
11
        1.54
21
       11.04
31
        4.93
0
CIRCLE
8
BUREAU-MAXMASSFLOWCIRCLESIN
62
   3
10
        1.54
20
       11.04
30
        4.93
40
        0.00
0
TEXT
8
BUREAU-MAXTEXT
10
        1.54
20
       11.04
30
        4.93
40
 2.5000000000000001E-002
1
2.1E-322 kg/s
0
LINE
8
BUREAU-NORMALS
62
 252
39
0
10
        1.04
20
       11.04
30
        4.93
11
        0.54
21
       11.04
31
        4.93
0
CIRCLE
8
BUREAU-MAXMASSFLOWCIRCLESOUT
62
 252
10
        0.54
20
       11.04
30
        4.93
40
        0.06
0
TEXT
8
BUREAU-MAXTEXT
10
        0.54
20
       11.04
30
        4.93
40
 2.5000000000000001E-002
1
0.00049 kg/s
0
CIRCLE
8
BUREAU-CENTERPOINTS
62
   0
10
        1.04
20
       11.04
30
        6.05
40
        0.02
0
LINE
8
BUREAU-NEGATIVENORMALS
62
   3
39
0
10
        1.04
20
       11.04
30
        6.05
11
        1.54
21
       11.04
31
        6.05
0
CIRCLE
8
BUREAU-MAXMASSFLOWCIRCLESIN
62
   3
10
        1.54
20
       11.04
30
        6.05
40
        0.00
0
TEXT
8
BUREAU-MAXTEXT
10
        1.54
20
       11.04
30
        6.05
40
 2.5000000000000001E-002
1
2.1E-322 kg/s
0
LINE
8
BUREAU-NORMALS
62
 252
39
0
10
        1.04
20
       11.04
30
        6.05
11
        0.54
21
       11.04
31
        6.05
0
CIRCLE
8
BUREAU-MAXMASSFLOWCIRCLESOUT
62
 252
10
        0.54
20
       11.04
30
        6.05
40
        0.31
0
TEXT
8
BUREAU-MAXTEXT
10
        0.54
20
       11.04
30
        6.05
40
 2.5000000000000001E-002
1
0.016 kg/s
0
CIRCLE
8
BUREAU-CENTERPOINTS
62
   0
10
        4.32
20
       11.69
30
        4.56
40
        0.02
0
LINE
8
BUREAU-NEGATIVENORMALS
62
   3
39
0
10
        4.32
20
       11.69
30
        4.56
11
        4.32
21
       11.19
31
        4.56
0
CIRCLE
8
BUREAU-MAXMASSFLOWCIRCLESIN
62
   3
10
        4.32
20
       11.19
30
        4.56
40
        0.02
0
TEXT
8
BUREAU-MAXTEXT
10
        4.32
20
       11.19
30
        4.56
40
 2.5000000000000001E-002
1
0.000082 kg/s
0
LINE
8
BUREAU-NORMALS
62
 252
39
0
10
        4.32
20
       11.69
30
        4.56
11
        4.32
21
       12.19
31
        4.56
0
CIRCLE
8
BUREAU-MAXMASSFLOWCIRCLESOUT
62
 252
10
        4.32
20
       12.19
30
        4.56
40
        0.06
0
TEXT
8
BUREAU-MAXTEXT
10
        4.32
20
       12.19
30
        4.56
40
 2.5000000000000001E-002
1
0.0005 kg/s
0
CIRCLE
8
SLPKVOOR-CENTERPOINTS
62
   0
10
        9.18
20
       11.69
30
        4.68
40
        0.02
0
LINE
8
SLPKVOOR-NEGATIVENORMALS
62
   3
39
0
10
        9.18
20
       11.69
30
        4.68
11
        9.18
21
       11.19
31
        4.68
0
CIRCLE
8
SLPKVOOR-MAXMASSFLOWCIRCLESIN
62
   3
10
        9.18
20
       11.19
30
        4.68
40
        0.01
0
TEXT
8
SLPKVOOR-MAXTEXT
10
        9.18
20
       11.19
30
        4.68
40
 2.5000000000000001E-002
1
0.000033 kg/s
0
LINE
8
SLPKVOOR-NORMALS
62
 252
39
0
10
        9.18
20
       11.69
30
        4.68
11
        9.18
21
       12.19
31
        4.68
0
CIRCLE
8
SLPKVOOR-MAXMASSFLOWCIRCLESOUT
62
 252
10
        9.18
20
       12.19
30
        4.68
40
        0.04
0
TEXT
8
SLPKVOOR-MAXTEXT
10
        9.18
20
       12.19
30
        4.68
40
 2.5000000000000001E-002
1
0.00022 kg/s
0
CIRCLE
8
BADKAMER-CENTERPOINTS
62
   0
10
       11.67
20
        6.00
30
        5.16
40
        0.02
0
LINE
8
BADKAMER-NEGATIVENORMALS
62
   3
39
0
10
       11.67
20
        6.00
30
        5.16
11
       11.17
21
        6.00
31
        5.16
0
CIRCLE
8
BADKAMER-MAXMASSFLOWCIRCLESIN
62
   3
10
       11.17
20
        6.00
30
        5.16
40
        0.00
0
TEXT
8
BADKAMER-MAXTEXT
10
       11.17
20
        6.00
30
        5.16
40
 2.5000000000000001E-002
1
2.1E-322 kg/s
0
LINE
8
BADKAMER-NORMALS
62
 252
39
0
10
       11.67
20
        6.00
30
        5.16
11
       12.17
21
        6.00
31
        5.16
0
CIRCLE
8
BADKAMER-MAXMASSFLOWCIRCLESOUT
62
 252
10
       12.17
20
        6.00
30
        5.16
40
        0.03
0
TEXT
8
BADKAMER-MAXTEXT
10
       12.17
20
        6.00
30
        5.16
40
 2.5000000000000001E-002
1
0.00018 kg/s
0
CIRCLE
8
SLPKACHTER-CENTERPOINTS
62
   0
10
        9.23
20
        1.02
30
        4.60
40
        0.02
0
LINE
8
SLPKACHTER-NEGATIVENORMALS
62
   3
39
0
10
        9.23
20
        1.02
30
        4.60
11
        9.23
21
        1.52
31
        4.60
0
CIRCLE
8
SLPKACHTER-MAXMASSFLOWCIRCLESIN
62
   3
10
        9.23
20
        1.52
30
        4.60
40
        0.02
0
TEXT
8
SLPKACHTER-MAXTEXT
10
        9.23
20
        1.52
30
        4.60
40
 2.5000000000000001E-002
1
0.000047 kg/s
0
LINE
8
SLPKACHTER-NORMALS
62
 252
39
0
10
        9.23
20
        1.02
30
        4.60
11
        9.23
21
        0.52
31
        4.60
0
CIRCLE
8
SLPKACHTER-MAXMASSFLOWCIRCLESOUT
62
 252
10
        9.23
20
        0.52
30
        4.60
40
        0.04
0
TEXT
8
SLPKACHTER-MAXTEXT
10
        9.23
20
        0.52
30
        4.60
40
 2.5000000000000001E-002
1
0.00024 kg/s
0
CIRCLE
8
SLPKOUDERS-CENTERPOINTS
62
   0
10
        4.50
20
        1.02
30
        4.64
40
        0.02
0
LINE
8
SLPKOUDERS-NEGATIVENORMALS
62
   3
39
0
10
        4.50
20
        1.02
30
        4.64
11
        4.50
21
        1.52
31
        4.64
0
CIRCLE
8
SLPKOUDERS-MAXMASSFLOWCIRCLESIN
62
   3
10
        4.50
20
        1.52
30
        4.64
40
        0.02
0
TEXT
8
SLPKOUDERS-MAXTEXT
10
        4.50
20
        1.52
30
        4.64
40
 2.5000000000000001E-002
1
0.000047 kg/s
0
LINE
8
SLPKOUDERS-NORMALS
62
 252
39
0
10
        4.50
20
        1.02
30
        4.64
11
        4.50
21
        0.52
31
        4.64
0
CIRCLE
8
SLPKOUDERS-MAXMASSFLOWCIRCLESOUT
62
 252
10
        4.50
20
        0.52
30
        4.64
40
        0.05
0
TEXT
8
SLPKOUDERS-MAXTEXT
10
        4.50
20
        0.52
30
        4.64
40
 2.5000000000000001E-002
1
0.00035 kg/s
0
CIRCLE
8
LIVING-CENTERPOINTS
62
   0
10
        0.00
20
        4.81
30
        1.36
40
        0.02
0
LINE
8
LIVING-NEGATIVENORMALS
62
   3
39
0
10
        0.00
20
        4.81
30
        1.36
11
        0.50
21
        4.81
31
        1.36
0
CIRCLE
8
LIVING-MAXMASSFLOWCIRCLESIN
62
   3
10
        0.50
20
        4.81
30
        1.36
40
        0.08
0
TEXT
8
LIVING-MAXTEXT
10
        0.50
20
        4.81
30
        1.36
40
 2.5000000000000001E-002
1
0.001 kg/s
0
LINE
8
LIVING-NORMALS
62
 252
39
0
10
        0.00
20
        4.81
30
        1.36
11
       -0.50
21
        4.81
31
        1.36
0
CIRCLE
8
LIVING-MAXMASSFLOWCIRCLESOUT
62
 252
10
       -0.50
20
        4.81
30
        1.36
40
        0.00
0
TEXT
8
LIVING-MAXTEXT
10
       -0.50
20
        4.81
30
        1.36
40
 2.5000000000000001E-002
1
0 kg/s
0
CIRCLE
8
BERGING-CENTERPOINTS
62
   1
10
        3.28
20
        8.59
30
        1.11
40
        0.02
0
LINE
8
BERGING-NEGATIVENORMALS
62
   2
39
0
10
        3.28
20
        8.59
30
        1.11
11
        3.78
21
        8.59
31
        1.11
0
CIRCLE
8
BERGING-MAXMASSFLOWCIRCLESIN
62
   2
10
        3.78
20
        8.59
30
        1.11
40
        0.10
0
TEXT
8
BERGING-MAXTEXT
10
        3.78
20
        8.59
30
        1.11
40
 2.5000000000000001E-002
1
0.0016 kg/s
0
LINE
8
BERGING-NORMALS
62
   2
39
0
10
        3.28
20
        8.59
30
        1.11
11
        2.78
21
        8.59
31
        1.11
0
CIRCLE
8
BERGING-MAXMASSFLOWCIRCLESOUT
62
   2
10
        2.78
20
        8.59
30
        1.11
40
        0.00
0
TEXT
8
BERGING-MAXTEXT
10
        2.78
20
        8.59
30
        1.11
40
 2.5000000000000001E-002
1
0 kg/s
0
CIRCLE
8
BERGING-CENTERPOINTS
62
   1
10
        7.43
20
        8.59
30
        1.11
40
        0.02
0
LINE
8
BERGING-NEGATIVENORMALS
62
   2
39
0
10
        7.43
20
        8.59
30
        1.11
11
        6.93
21
        8.59
31
        1.11
0
CIRCLE
8
BERGING-MAXMASSFLOWCIRCLESIN
62
   2
10
        6.93
20
        8.59
30
        1.11
40
        0.09
0
TEXT
8
BERGING-MAXTEXT
10
        6.93
20
        8.59
30
        1.11
40
 2.5000000000000001E-002
1
0.0012 kg/s
0
LINE
8
BERGING-NORMALS
62
   2
39
0
10
        7.43
20
        8.59
30
        1.11
11
        7.93
21
        8.59
31
        1.11
0
CIRCLE
8
BERGING-MAXMASSFLOWCIRCLESOUT
62
   2
10
        7.93
20
        8.59
30
        1.11
40
        0.00
0
TEXT
8
BERGING-MAXTEXT
10
        7.93
20
        8.59
30
        1.11
40
 2.5000000000000001E-002
1
0 kg/s
0
CIRCLE
8
HAL-CENTERPOINTS
62
   1
10
        3.28
20
        7.53
30
        1.11
40
        0.02
0
LINE
8
HAL-NEGATIVENORMALS
62
   2
39
0
10
        3.28
20
        7.53
30
        1.11
11
        2.78
21
        7.53
31
        1.11
0
CIRCLE
8
HAL-MAXMASSFLOWCIRCLESIN
62
   2
10
        2.78
20
        7.53
30
        1.11
40
        0.00
0
TEXT
8
HAL-MAXTEXT
10
        2.78
20
        7.53
30
        1.11
40
 2.5000000000000001E-002
1
2.1E-322 kg/s
0
LINE
8
HAL-NORMALS
62
   2
39
0
10
        3.28
20
        7.53
30
        1.11
11
        3.78
21
        7.53
31
        1.11
0
CIRCLE
8
HAL-MAXMASSFLOWCIRCLESOUT
62
   2
10
        3.78
20
        7.53
30
        1.11
40
        0.10
0
TEXT
8
HAL-MAXTEXT
10
        3.78
20
        7.53
30
        1.11
40
 2.5000000000000001E-002
1
0.0015 kg/s
0
CIRCLE
8
HAL-CENTERPOINTS
62
   1
10
        3.28
20
        6.48
30
        1.11
40
        0.02
0
LINE
8
HAL-NEGATIVENORMALS
62
   2
39
0
10
        3.28
20
        6.48
30
        1.11
11
        2.78
21
        6.48
31
        1.11
0
CIRCLE
8
HAL-MAXMASSFLOWCIRCLESIN
62
   2
10
        2.78
20
        6.48
30
        1.11
40
        0.00
0
TEXT
8
HAL-MAXTEXT
10
        2.78
20
        6.48
30
        1.11
40
 2.5000000000000001E-002
1
2.1E-322 kg/s
0
LINE
8
HAL-NORMALS
62
   2
39
0
10
        3.28
20
        6.48
30
        1.11
11
        3.78
21
        6.48
31
        1.11
0
CIRCLE
8
HAL-MAXMASSFLOWCIRCLESOUT
62
   2
10
        3.78
20
        6.48
30
        1.11
40
        0.08
0
TEXT
8
HAL-MAXTEXT
10
        3.78
20
        6.48
30
        1.11
40
 2.5000000000000001E-002
1
0.0011 kg/s
0
CIRCLE
8
SLPKVOOR-CENTERPOINTS
62
   1
10
        8.01
20
        8.34
30
        4.36
40
        0.02
0
LINE
8
SLPKVOOR-NEGATIVENORMALS
62
   2
39
0
10
        8.01
20
        8.34
30
        4.36
11
        8.01
21
        8.84
31
        4.36
0
CIRCLE
8
SLPKVOOR-MAXMASSFLOWCIRCLESIN
62
   2
10
        8.01
20
        8.84
30
        4.36
40
        0.26
0
TEXT
8
SLPKVOOR-MAXTEXT
10
        8.01
20
        8.84
30
        4.36
40
 2.5000000000000001E-002
1
0.011 kg/s
0
LINE
8
SLPKVOOR-NORMALS
62
   2
39
0
10
        8.01
20
        8.34
30
        4.36
11
        8.01
21
        7.84
31
        4.36
0
CIRCLE
8
SLPKVOOR-MAXMASSFLOWCIRCLESOUT
62
   2
10
        8.01
20
        7.84
30
        4.36
40
        0.09
0
TEXT
8
SLPKVOOR-MAXTEXT
10
        8.01
20
        7.84
30
        4.36
40
 2.5000000000000001E-002
1
0.0012 kg/s
0
CIRCLE
8
BUREAU-CENTERPOINTS
62
   1
10
        7.43
20
        7.84
30
        4.36
40
        0.02
0
LINE
8
BUREAU-NEGATIVENORMALS
62
   2
39
0
10
        7.43
20
        7.84
30
        4.36
11
        6.93
21
        7.84
31
        4.36
0
CIRCLE
8
BUREAU-MAXMASSFLOWCIRCLESIN
62
   2
10
        6.93
20
        7.84
30
        4.36
40
        0.35
0
TEXT
8
BUREAU-MAXTEXT
10
        6.93
20
        7.84
30
        4.36
40
 2.5000000000000001E-002
1
0.019 kg/s
0
LINE
8
BUREAU-NORMALS
62
   2
39
0
10
        7.43
20
        7.84
30
        4.36
11
        7.93
21
        7.84
31
        4.36
0
CIRCLE
8
BUREAU-MAXMASSFLOWCIRCLESOUT
62
   2
10
        7.93
20
        7.84
30
        4.36
40
        0.14
0
TEXT
8
BUREAU-MAXTEXT
10
        7.93
20
        7.84
30
        4.36
40
 2.5000000000000001E-002
1
0.0029 kg/s
0
CIRCLE
8
NACHTHAL-CENTERPOINTS
62
   1
10
        5.81
20
        4.91
30
        4.36
40
        0.02
0
LINE
8
NACHTHAL-NEGATIVENORMALS
62
   2
39
0
10
        5.81
20
        4.91
30
        4.36
11
        5.81
21
        5.41
31
        4.36
0
CIRCLE
8
NACHTHAL-MAXMASSFLOWCIRCLESIN
62
   2
10
        5.81
20
        5.41
30
        4.36
40
        0.00
0
TEXT
8
NACHTHAL-MAXTEXT
10
        5.81
20
        5.41
30
        4.36
40
 2.5000000000000001E-002
1
2.1E-322 kg/s
0
LINE
8
NACHTHAL-NORMALS
62
   2
39
0
10
        5.81
20
        4.91
30
        4.36
11
        5.81
21
        4.41
31
        4.36
0
CIRCLE
8
NACHTHAL-MAXMASSFLOWCIRCLESOUT
62
   2
10
        5.81
20
        4.41
30
        4.36
40
        0.29
0
TEXT
8
NACHTHAL-MAXTEXT
10
        5.81
20
        4.41
30
        4.36
40
 2.5000000000000001E-002
1
0.014 kg/s
0
CIRCLE
8
NACHTHAL-CENTERPOINTS
62
   1
10
        8.50
20
        7.24
30
        4.36
40
        0.02
0
LINE
8
NACHTHAL-NEGATIVENORMALS
62
   2
39
0
10
        8.50
20
        7.24
30
        4.36
11
        8.00
21
        7.24
31
        4.36
0
CIRCLE
8
NACHTHAL-MAXMASSFLOWCIRCLESIN
62
   2
10
        8.00
20
        7.24
30
        4.36
40
        0.00
0
TEXT
8
NACHTHAL-MAXTEXT
10
        8.00
20
        7.24
30
        4.36
40
 2.5000000000000001E-002
1
2.1E-322 kg/s
0
LINE
8
NACHTHAL-NORMALS
62
   2
39
0
10
        8.50
20
        7.24
30
        4.36
11
        9.00
21
        7.24
31
        4.36
0
CIRCLE
8
NACHTHAL-MAXMASSFLOWCIRCLESOUT
62
   2
10
        9.00
20
        7.24
30
        4.36
40
        0.09
0
TEXT
8
NACHTHAL-MAXTEXT
10
        9.00
20
        7.24
30
        4.36
40
 2.5000000000000001E-002
1
0.0013 kg/s
0
CIRCLE
8
NACHTHAL-CENTERPOINTS
62
   1
10
        8.50
20
        5.44
30
        4.36
40
        0.02
0
LINE
8
NACHTHAL-NEGATIVENORMALS
62
   2
39
0
10
        8.50
20
        5.44
30
        4.36
11
        8.00
21
        5.44
31
        4.36
0
CIRCLE
8
NACHTHAL-MAXMASSFLOWCIRCLESIN
62
   2
10
        8.00
20
        5.44
30
        4.36
40
        0.00
0
TEXT
8
NACHTHAL-MAXTEXT
10
        8.00
20
        5.44
30
        4.36
40
 2.5000000000000001E-002
1
2.1E-322 kg/s
0
LINE
8
NACHTHAL-NORMALS
62
   2
39
0
10
        8.50
20
        5.44
30
        4.36
11
        9.00
21
        5.44
31
        4.36
0
CIRCLE
8
NACHTHAL-MAXMASSFLOWCIRCLESOUT
62
   2
10
        9.00
20
        5.44
30
        4.36
40
        0.14
0
TEXT
8
NACHTHAL-MAXTEXT
10
        9.00
20
        5.44
30
        4.36
40
 2.5000000000000001E-002
1
0.003 kg/s
0
CIRCLE
8
NACHTHAL-CENTERPOINTS
62
   1
10
        8.01
20
        4.91
30
        4.36
40
        0.02
0
LINE
8
NACHTHAL-NEGATIVENORMALS
62
   2
39
0
10
        8.01
20
        4.91
30
        4.36
11
        8.01
21
        5.41
31
        4.36
0
CIRCLE
8
NACHTHAL-MAXMASSFLOWCIRCLESIN
62
   2
10
        8.01
20
        5.41
30
        4.36
40
        0.09
0
TEXT
8
NACHTHAL-MAXTEXT
10
        8.01
20
        5.41
30
        4.36
40
 2.5000000000000001E-002
1
0.0013 kg/s
0
LINE
8
NACHTHAL-NORMALS
62
   2
39
0
10
        8.01
20
        4.91
30
        4.36
11
        8.01
21
        4.41
31
        4.36
0
CIRCLE
8
NACHTHAL-MAXMASSFLOWCIRCLESOUT
62
   2
10
        8.01
20
        4.41
30
        4.36
40
        0.24
0
TEXT
8
NACHTHAL-MAXTEXT
10
        8.01
20
        4.41
30
        4.36
40
 2.5000000000000001E-002
1
0.0089 kg/s
0
CIRCLE
8
LIVING-CENTERPOINTS
62
   0
10
        4.86
20
        0.00
30
        1.04
40
        0.02
0
LINE
8
LIVING-NEGATIVENORMALS
62
   3
39
0
10
        4.86
20
        0.00
30
        1.04
11
        4.86
21
        0.50
31
        1.04
0
CIRCLE
8
LIVING-MAXMASSFLOWCIRCLESIN
62
   3
10
        4.86
20
        0.50
30
        1.04
40
        0.08
0
TEXT
8
LIVING-MAXTEXT
10
        4.86
20
        0.50
30
        1.04
40
 2.5000000000000001E-002
1
0.00093 kg/s
0
LINE
8
LIVING-NORMALS
62
 252
39
0
10
        4.86
20
        0.00
30
        1.04
11
        4.86
21
       -0.50
31
        1.04
0
CIRCLE
8
LIVING-MAXMASSFLOWCIRCLESOUT
62
 252
10
        4.86
20
       -0.50
30
        1.04
40
        0.00
0
TEXT
8
LIVING-MAXTEXT
10
        4.86
20
       -0.50
30
        1.04
40
 2.5000000000000001E-002
1
0 kg/s
0
CIRCLE
8
HAL-CENTERPOINTS
62
   0
10
        1.04
20
        7.69
30
        1.24
40
        0.02
0
LINE
8
HAL-NEGATIVENORMALS
62
   3
39
0
10
        1.04
20
        7.69
30
        1.24
11
        1.54
21
        7.69
31
        1.24
0
CIRCLE
8
HAL-MAXMASSFLOWCIRCLESIN
62
   3
10
        1.54
20
        7.69
30
        1.24
40
        0.07
0
TEXT
8
HAL-MAXTEXT
10
        1.54
20
        7.69
30
        1.24
40
 2.5000000000000001E-002
1
0.00089 kg/s
0
LINE
8
HAL-NORMALS
62
 252
39
0
10
        1.04
20
        7.69
30
        1.24
11
        0.54
21
        7.69
31
        1.24
0
CIRCLE
8
HAL-MAXMASSFLOWCIRCLESOUT
62
 252
10
        0.54
20
        7.69
30
        1.24
40
        0.00
0
TEXT
8
HAL-MAXTEXT
10
        0.54
20
        7.69
30
        1.24
40
 2.5000000000000001E-002
1
0 kg/s
0
CIRCLE
8
HAL-CENTERPOINTS
62
   0
10
        1.04
20
        8.69
30
        1.35
40
        0.02
0
LINE
8
HAL-NEGATIVENORMALS
62
   3
39
0
10
        1.04
20
        8.69
30
        1.35
11
        1.54
21
        8.69
31
        1.35
0
CIRCLE
8
HAL-MAXMASSFLOWCIRCLESIN
62
   3
10
        1.54
20
        8.69
30
        1.35
40
        0.08
0
TEXT
8
HAL-MAXTEXT
10
        1.54
20
        8.69
30
        1.35
40
 2.5000000000000001E-002
1
0.00095 kg/s
0
LINE
8
HAL-NORMALS
62
 252
39
0
10
        1.04
20
        8.69
30
        1.35
11
        0.54
21
        8.69
31
        1.35
0
CIRCLE
8
HAL-MAXMASSFLOWCIRCLESOUT
62
 252
10
        0.54
20
        8.69
30
        1.35
40
        0.00
0
TEXT
8
HAL-MAXTEXT
10
        0.54
20
        8.69
30
        1.35
40
 2.5000000000000001E-002
1
0 kg/s
0
CIRCLE
8
SLPKVOOR-CENTERPOINTS
62
   0
10
        9.18
20
       11.69
30
        5.65
40
        0.02
0
LINE
8
SLPKVOOR-NEGATIVENORMALS
62
   3
39
0
10
        9.18
20
       11.69
30
        5.65
11
        9.18
21
       11.19
31
        5.65
0
CIRCLE
8
SLPKVOOR-MAXMASSFLOWCIRCLESIN
62
   3
10
        9.18
20
       11.19
30
        5.65
40
        0.00
0
TEXT
8
SLPKVOOR-MAXTEXT
10
        9.18
20
       11.19
30
        5.65
40
 2.5000000000000001E-002
1
2.1E-322 kg/s
0
LINE
8
SLPKVOOR-NORMALS
62
 252
39
0
10
        9.18
20
       11.69
30
        5.65
11
        9.18
21
       12.19
31
        5.65
0
CIRCLE
8
SLPKVOOR-MAXMASSFLOWCIRCLESOUT
62
 252
10
        9.18
20
       12.19
30
        5.65
40
        0.24
0
TEXT
8
SLPKVOOR-MAXTEXT
10
        9.18
20
       12.19
30
        5.65
40
 2.5000000000000001E-002
1
0.0095 kg/s
0
CIRCLE
8
SLPKACHTER-CENTERPOINTS
62
   0
10
        9.23
20
        1.02
30
        5.39
40
        0.02
0
LINE
8
SLPKACHTER-NEGATIVENORMALS
62
   3
39
0
10
        9.23
20
        1.02
30
        5.39
11
        9.23
21
        1.52
31
        5.39
0
CIRCLE
8
SLPKACHTER-MAXMASSFLOWCIRCLESIN
62
   3
10
        9.23
20
        1.52
30
        5.39
40
        0.00
0
TEXT
8
SLPKACHTER-MAXTEXT
10
        9.23
20
        1.52
30
        5.39
40
 2.5000000000000001E-002
1
2.1E-322 kg/s
0
LINE
8
SLPKACHTER-NORMALS
62
 252
39
0
10
        9.23
20
        1.02
30
        5.39
11
        9.23
21
        0.52
31
        5.39
0
CIRCLE
8
SLPKACHTER-MAXMASSFLOWCIRCLESOUT
62
 252
10
        9.23
20
        0.52
30
        5.39
40
        0.22
0
TEXT
8
SLPKACHTER-MAXTEXT
10
        9.23
20
        0.52
30
        5.39
40
 2.5000000000000001E-002
1
0.0074 kg/s
0
CIRCLE
8
SLPKOUDERS-CENTERPOINTS
62
   0
10
        4.50
20
        1.02
30
        5.58
40
        0.02
0
LINE
8
SLPKOUDERS-NEGATIVENORMALS
62
   3
39
0
10
        4.50
20
        1.02
30
        5.58
11
        4.50
21
        1.52
31
        5.58
0
CIRCLE
8
SLPKOUDERS-MAXMASSFLOWCIRCLESIN
62
   3
10
        4.50
20
        1.52
30
        5.58
40
        0.00
0
TEXT
8
SLPKOUDERS-MAXTEXT
10
        4.50
20
        1.52
30
        5.58
40
 2.5000000000000001E-002
1
2.1E-322 kg/s
0
LINE
8
SLPKOUDERS-NORMALS
62
 252
39
0
10
        4.50
20
        1.02
30
        5.58
11
        4.50
21
        0.52
31
        5.58
0
CIRCLE
8
SLPKOUDERS-MAXMASSFLOWCIRCLESOUT
62
 252
10
        4.50
20
        0.52
30
        5.58
40
        0.26
0
TEXT
8
SLPKOUDERS-MAXTEXT
10
        4.50
20
        0.52
30
        5.58
40
 2.5000000000000001E-002
1
0.011 kg/s
0
CIRCLE
8
LIVING-CENTERPOINTS
62
   0
10
        8.97
20
        1.02
30
        2.50
40
        0.02
0
LINE
8
LIVING-NEGATIVENORMALS
62
   3
39
0
10
        8.97
20
        1.02
30
        2.50
11
        8.97
21
        1.52
31
        2.50
0
CIRCLE
8
LIVING-MAXMASSFLOWCIRCLESIN
62
   3
10
        8.97
20
        1.52
30
        2.50
40
        0.55
0
TEXT
8
LIVING-MAXTEXT
10
        8.97
20
        1.52
30
        2.50
40
 2.5000000000000001E-002
1
0.047 kg/s
0
LINE
8
LIVING-NORMALS
62
 252
39
0
10
        8.97
20
        1.02
30
        2.50
11
        8.97
21
        0.52
31
        2.50
0
CIRCLE
8
LIVING-MAXMASSFLOWCIRCLESOUT
62
 252
10
        8.97
20
        0.52
30
        2.50
40
        0.00
0
TEXT
8
LIVING-MAXTEXT
10
        8.97
20
        0.52
30
        2.50
40
 2.5000000000000001E-002
1
0 kg/s
0
CIRCLE
8
LIVING-CENTERPOINTS
62
   1
10
        5.36
20
        6.19
30
        3.25
40
        0.02
0
LINE
8
LIVING-NEGATIVENORMALS
62
   2
39
0
10
        5.36
20
        6.19
30
        3.25
11
        5.36
21
        6.19
31
        2.75
0
CIRCLE
8
LIVING-MAXMASSFLOWCIRCLESIN
62
   2
10
        5.36
20
        6.19
30
        2.75
40
        0.00
0
TEXT
8
LIVING-MAXTEXT
10
        5.36
20
        6.19
30
        2.75
40
 2.5000000000000001E-002
1
2.1E-322 kg/s
0
LINE
8
LIVING-NORMALS
62
   2
39
0
10
        5.36
20
        6.19
30
        3.25
11
        5.36
21
        6.19
31
        3.75
0
CIRCLE
8
LIVING-MAXMASSFLOWCIRCLESOUT
62
   2
10
        5.36
20
        6.19
30
        3.75
40
        0.58
0
TEXT
8
LIVING-MAXTEXT
10
        5.36
20
        6.19
30
        3.75
40
 2.5000000000000001E-002
1
0.053 kg/s
0
CIRCLE
8
SLPKOUDERS-CENTERPOINTS
62
   1
10
        1.44
20
        5.96
30
        5.89
40
        0.02
0
LINE
8
SLPKOUDERS-NEGATIVENORMALS
62
   2
39
0
10
        1.44
20
        5.96
30
        5.89
11
        1.44
21
        5.46
31
        5.89
0
CIRCLE
8
SLPKOUDERS-MAXMASSFLOWCIRCLESIN
62
   2
10
        1.44
20
        5.46
30
        5.89
40
        0.00
0
TEXT
8
SLPKOUDERS-MAXTEXT
10
        1.44
20
        5.46
30
        5.89
40
 2.5000000000000001E-002
1
2.1E-322 kg/s
0
LINE
8
SLPKOUDERS-NORMALS
62
   2
39
0
10
        1.44
20
        5.96
30
        5.89
11
        1.44
21
        6.46
31
        5.89
0
CIRCLE
8
SLPKOUDERS-MAXMASSFLOWCIRCLESOUT
62
   2
10
        1.44
20
        6.46
30
        5.89
40
        0.12
0
TEXT
8
SLPKOUDERS-MAXTEXT
10
        1.44
20
        6.46
30
        5.89
40
 2.5000000000000001E-002
1
0.0023 kg/s
0
CIRCLE
8
NACHTHAL-CENTERPOINTS
62
   0
10
        6.08
20
        5.34
30
        6.50
40
        0.02
0
LINE
8
NACHTHAL-NEGATIVENORMALS
62
   3
39
0
10
        6.08
20
        5.34
30
        6.50
11
        6.08
21
        5.84
31
        6.50
0
CIRCLE
8
NACHTHAL-MAXMASSFLOWCIRCLESIN
62
   3
10
        6.08
20
        5.84
30
        6.50
40
        0.00
0
TEXT
8
NACHTHAL-MAXTEXT
10
        6.08
20
        5.84
30
        6.50
40
 2.5000000000000001E-002
1
2.1E-322 kg/s
0
LINE
8
NACHTHAL-NORMALS
62
 252
39
0
10
        6.08
20
        5.34
30
        6.50
11
        6.08
21
        4.84
31
        6.50
0
CIRCLE
8
NACHTHAL-MAXMASSFLOWCIRCLESOUT
62
 252
10
        6.08
20
        4.84
30
        6.50
40
        0.02
0
TEXT
8
NACHTHAL-MAXTEXT
10
        6.08
20
        4.84
30
        6.50
40
 2.5000000000000001E-002
1
0.000096 kg/s
0
CIRCLE
8
NACHTHAL-CENTERPOINTS
62
   0
10
        6.58
20
        5.84
30
        6.50
40
        0.02
0
LINE
8
NACHTHAL-NEGATIVENORMALS
62
   3
39
0
10
        6.58
20
        5.84
30
        6.50
11
        6.08
21
        5.84
31
        6.50
0
CIRCLE
8
NACHTHAL-MAXMASSFLOWCIRCLESIN
62
   3
10
        6.08
20
        5.84
30
        6.50
40
        0.00
0
TEXT
8
NACHTHAL-MAXTEXT
10
        6.08
20
        5.84
30
        6.50
40
 2.5000000000000001E-002
1
2.1E-322 kg/s
0
LINE
8
NACHTHAL-NORMALS
62
 252
39
0
10
        6.58
20
        5.84
30
        6.50
11
        7.08
21
        5.84
31
        6.50
0
CIRCLE
8
NACHTHAL-MAXMASSFLOWCIRCLESOUT
62
 252
10
        7.08
20
        5.84
30
        6.50
40
        0.02
0
TEXT
8
NACHTHAL-MAXTEXT
10
        7.08
20
        5.84
30
        6.50
40
 2.5000000000000001E-002
1
0.000096 kg/s
0
CIRCLE
8
NACHTHAL-CENTERPOINTS
62
   0
10
        5.58
20
        5.84
30
        6.50
40
        0.02
0
LINE
8
NACHTHAL-NEGATIVENORMALS
62
   3
39
0
10
        5.58
20
        5.84
30
        6.50
11
        6.08
21
        5.84
31
        6.50
0
CIRCLE
8
NACHTHAL-MAXMASSFLOWCIRCLESIN
62
   3
10
        6.08
20
        5.84
30
        6.50
40
        0.00
0
TEXT
8
NACHTHAL-MAXTEXT
10
        6.08
20
        5.84
30
        6.50
40
 2.5000000000000001E-002
1
2.1E-322 kg/s
0
LINE
8
NACHTHAL-NORMALS
62
 252
39
0
10
        5.58
20
        5.84
30
        6.50
11
        5.08
21
        5.84
31
        6.50
0
CIRCLE
8
NACHTHAL-MAXMASSFLOWCIRCLESOUT
62
 252
10
        5.08
20
        5.84
30
        6.50
40
        0.02
0
TEXT
8
NACHTHAL-MAXTEXT
10
        5.08
20
        5.84
30
        6.50
40
 2.5000000000000001E-002
1
0.000096 kg/s
0
CIRCLE
8
NACHTHAL-CENTERPOINTS
62
   0
10
        6.08
20
        6.34
30
        6.50
40
        0.02
0
LINE
8
NACHTHAL-NEGATIVENORMALS
62
   3
39
0
10
        6.08
20
        6.34
30
        6.50
11
        6.08
21
        5.84
31
        6.50
0
CIRCLE
8
NACHTHAL-MAXMASSFLOWCIRCLESIN
62
   3
10
        6.08
20
        5.84
30
        6.50
40
        0.00
0
TEXT
8
NACHTHAL-MAXTEXT
10
        6.08
20
        5.84
30
        6.50
40
 2.5000000000000001E-002
1
2.1E-322 kg/s
0
LINE
8
NACHTHAL-NORMALS
62
 252
39
0
10
        6.08
20
        6.34
30
        6.50
11
        6.08
21
        6.84
31
        6.50
0
CIRCLE
8
NACHTHAL-MAXMASSFLOWCIRCLESOUT
62
 252
10
        6.08
20
        6.84
30
        6.50
40
        0.02
0
TEXT
8
NACHTHAL-MAXTEXT
10
        6.08
20
        6.84
30
        6.50
40
 2.5000000000000001E-002
1
0.000096 kg/s
0
CIRCLE
8
NACHTHAL-CENTERPOINTS
62
   0
10
        4.48
20
        5.89
30
        6.50
40
        0.02
0
LINE
8
NACHTHAL-NEGATIVENORMALS
62
   3
39
0
10
        4.48
20
        5.89
30
        6.50
11
        3.98
21
        5.89
31
        6.50
0
CIRCLE
8
NACHTHAL-MAXMASSFLOWCIRCLESIN
62
   3
10
        3.98
20
        5.89
30
        6.50
40
        0.00
0
TEXT
8
NACHTHAL-MAXTEXT
10
        3.98
20
        5.89
30
        6.50
40
 2.5000000000000001E-002
1
2.1E-322 kg/s
0
LINE
8
NACHTHAL-NORMALS
62
 252
39
0
10
        4.48
20
        5.89
30
        6.50
11
        4.98
21
        5.89
31
        6.50
0
CIRCLE
8
NACHTHAL-MAXMASSFLOWCIRCLESOUT
62
 252
10
        4.98
20
        5.89
30
        6.50
40
        0.02
0
TEXT
8
NACHTHAL-MAXTEXT
10
        4.98
20
        5.89
30
        6.50
40
 2.5000000000000001E-002
1
0.000096 kg/s
0
CIRCLE
8
NACHTHAL-CENTERPOINTS
62
   0
10
        3.98
20
        5.39
30
        6.50
40
        0.02
0
LINE
8
NACHTHAL-NEGATIVENORMALS
62
   3
39
0
10
        3.98
20
        5.39
30
        6.50
11
        3.98
21
        5.89
31
        6.50
0
CIRCLE
8
NACHTHAL-MAXMASSFLOWCIRCLESIN
62
   3
10
        3.98
20
        5.89
30
        6.50
40
        0.00
0
TEXT
8
NACHTHAL-MAXTEXT
10
        3.98
20
        5.89
30
        6.50
40
 2.5000000000000001E-002
1
2.1E-322 kg/s
0
LINE
8
NACHTHAL-NORMALS
62
 252
39
0
10
        3.98
20
        5.39
30
        6.50
11
        3.98
21
        4.89
31
        6.50
0
CIRCLE
8
NACHTHAL-MAXMASSFLOWCIRCLESOUT
62
 252
10
        3.98
20
        4.89
30
        6.50
40
        0.02
0
TEXT
8
NACHTHAL-MAXTEXT
10
        3.98
20
        4.89
30
        6.50
40
 2.5000000000000001E-002
1
0.000096 kg/s
0
CIRCLE
8
NACHTHAL-CENTERPOINTS
62
   0
10
        3.98
20
        6.39
30
        6.50
40
        0.02
0
LINE
8
NACHTHAL-NEGATIVENORMALS
62
   3
39
0
10
        3.98
20
        6.39
30
        6.50
11
        3.98
21
        5.89
31
        6.50
0
CIRCLE
8
NACHTHAL-MAXMASSFLOWCIRCLESIN
62
   3
10
        3.98
20
        5.89
30
        6.50
40
        0.00
0
TEXT
8
NACHTHAL-MAXTEXT
10
        3.98
20
        5.89
30
        6.50
40
 2.5000000000000001E-002
1
2.1E-322 kg/s
0
LINE
8
NACHTHAL-NORMALS
62
 252
39
0
10
        3.98
20
        6.39
30
        6.50
11
        3.98
21
        6.89
31
        6.50
0
CIRCLE
8
NACHTHAL-MAXMASSFLOWCIRCLESOUT
62
 252
10
        3.98
20
        6.89
30
        6.50
40
        0.02
0
TEXT
8
NACHTHAL-MAXTEXT
10
        3.98
20
        6.89
30
        6.50
40
 2.5000000000000001E-002
1
0.000096 kg/s
0
CIRCLE
8
NACHTHAL-CENTERPOINTS
62
   0
10
        3.48
20
        5.89
30
        6.50
40
        0.02
0
LINE
8
NACHTHAL-NEGATIVENORMALS
62
   3
39
0
10
        3.48
20
        5.89
30
        6.50
11
        3.98
21
        5.89
31
        6.50
0
CIRCLE
8
NACHTHAL-MAXMASSFLOWCIRCLESIN
62
   3
10
        3.98
20
        5.89
30
        6.50
40
        0.00
0
TEXT
8
NACHTHAL-MAXTEXT
10
        3.98
20
        5.89
30
        6.50
40
 2.5000000000000001E-002
1
2.1E-322 kg/s
0
LINE
8
NACHTHAL-NORMALS
62
 252
39
0
10
        3.48
20
        5.89
30
        6.50
11
        2.98
21
        5.89
31
        6.50
0
CIRCLE
8
NACHTHAL-MAXMASSFLOWCIRCLESOUT
62
 252
10
        2.98
20
        5.89
30
        6.50
40
        0.02
0
TEXT
8
NACHTHAL-MAXTEXT
10
        2.98
20
        5.89
30
        6.50
40
 2.5000000000000001E-002
1
0.000096 kg/s
0
CIRCLE
8
LIVING-CENTERPOINTS
62
   0
10
        4.86
20
        0.00
30
        2.37
40
        0.02
0
LINE
8
LIVING-NEGATIVENORMALS
62
   3
39
0
10
        4.86
20
        0.00
30
        2.37
11
        4.86
21
        0.50
31
        2.37
0
CIRCLE
8
LIVING-MAXMASSFLOWCIRCLESIN
62
   3
10
        4.86
20
        0.50
30
        2.37
40
        0.05
0
TEXT
8
LIVING-MAXTEXT
10
        4.86
20
        0.50
30
        2.37
40
 2.5000000000000001E-002
1
0.00036 kg/s
0
LINE
8
LIVING-NORMALS
62
 252
39
0
10
        4.86
20
        0.00
30
        2.37
11
        4.86
21
       -0.50
31
        2.37
0
CIRCLE
8
LIVING-MAXMASSFLOWCIRCLESOUT
62
 252
10
        4.86
20
       -0.50
30
        2.37
40
        0.00
0
TEXT
8
LIVING-MAXTEXT
10
        4.86
20
       -0.50
30
        2.37
40
 2.5000000000000001E-002
1
0 kg/s
0
CIRCLE
8
LIVING-CENTERPOINTS
62
   1
10
       11.50
20
        1.19
30
        3.25
40
        0.02
0
LINE
8
LIVING-NEGATIVENORMALS
62
   2
39
0
10
       11.50
20
        1.19
30
        3.25
11
       11.50
21
        1.19
31
        2.75
0
CIRCLE
8
LIVING-MAXMASSFLOWCIRCLESIN
62
   2
10
       11.50
20
        1.19
30
        2.75
40
        0.25
0
TEXT
8
LIVING-MAXTEXT
10
       11.50
20
        1.19
30
        2.75
40
 2.5000000000000001E-002
1
0.01 kg/s
0
LINE
8
LIVING-NORMALS
62
   2
39
0
10
       11.50
20
        1.19
30
        3.25
11
       11.50
21
        1.19
31
        3.75
0
CIRCLE
8
LIVING-MAXMASSFLOWCIRCLESOUT
62
   2
10
       11.50
20
        1.19
30
        3.75
40
        0.36
0
TEXT
8
LIVING-MAXTEXT
10
       11.50
20
        1.19
30
        3.75
40
 2.5000000000000001E-002
1
0.02 kg/s
0
CIRCLE
8
SLPKACHTER-CENTERPOINTS
62
   0
10
        7.61
20
        1.19
30
        6.40
40
        0.02
0
LINE
8
SLPKACHTER-NEGATIVENORMALS
62
   3
39
0
10
        7.61
20
        1.19
30
        6.40
11
        7.61
21
        1.19
31
        5.90
0
CIRCLE
8
SLPKACHTER-MAXMASSFLOWCIRCLESIN
62
   3
10
        7.61
20
        1.19
30
        5.90
40
        0.00
0
TEXT
8
SLPKACHTER-MAXTEXT
10
        7.61
20
        1.19
30
        5.90
40
 2.5000000000000001E-002
1
2.1E-322 kg/s
0
LINE
8
SLPKACHTER-NORMALS
62
 252
39
0
10
        7.61
20
        1.19
30
        6.40
11
        7.61
21
        1.19
31
        6.90
0
CIRCLE
8
SLPKACHTER-MAXMASSFLOWCIRCLESOUT
62
 252
10
        7.61
20
        1.19
30
        6.90
40
        0.00
0
TEXT
8
SLPKACHTER-MAXTEXT
10
        7.61
20
        1.19
30
        6.90
40
 2.5000000000000001E-002
1
0 kg/s
0
CIRCLE
8
SLPKVOOR-CENTERPOINTS
62
   0
10
        7.61
20
       11.52
30
        6.40
40
        0.02
0
LINE
8
SLPKVOOR-NEGATIVENORMALS
62
   3
39
0
10
        7.61
20
       11.52
30
        6.40
11
        7.61
21
       11.52
31
        5.90
0
CIRCLE
8
SLPKVOOR-MAXMASSFLOWCIRCLESIN
62
   3
10
        7.61
20
       11.52
30
        5.90
40
        0.00
0
TEXT
8
SLPKVOOR-MAXTEXT
10
        7.61
20
       11.52
30
        5.90
40
 2.5000000000000001E-002
1
2.1E-322 kg/s
0
LINE
8
SLPKVOOR-NORMALS
62
 252
39
0
10
        7.61
20
       11.52
30
        6.40
11
        7.61
21
       11.52
31
        6.90
0
CIRCLE
8
SLPKVOOR-MAXMASSFLOWCIRCLESOUT
62
 252
10
        7.61
20
       11.52
30
        6.90
40
        0.00
0
TEXT
8
SLPKVOOR-MAXTEXT
10
        7.61
20
       11.52
30
        6.90
40
 2.5000000000000001E-002
1
0 kg/s
0
CIRCLE
8
SLPKOUDERS-CENTERPOINTS
62
   0
10
        7.26
20
        1.19
30
        6.40
40
        0.02
0
LINE
8
SLPKOUDERS-NEGATIVENORMALS
62
   3
39
0
10
        7.26
20
        1.19
30
        6.40
11
        7.26
21
        1.19
31
        5.90
0
CIRCLE
8
SLPKOUDERS-MAXMASSFLOWCIRCLESIN
62
   3
10
        7.26
20
        1.19
30
        5.90
40
        0.00
0
TEXT
8
SLPKOUDERS-MAXTEXT
10
        7.26
20
        1.19
30
        5.90
40
 2.5000000000000001E-002
1
2.1E-322 kg/s
0
LINE
8
SLPKOUDERS-NORMALS
62
 252
39
0
10
        7.26
20
        1.19
30
        6.40
11
        7.26
21
        1.19
31
        6.90
0
CIRCLE
8
SLPKOUDERS-MAXMASSFLOWCIRCLESOUT
62
 252
10
        7.26
20
        1.19
30
        6.90
40
        0.00
0
TEXT
8
SLPKOUDERS-MAXTEXT
10
        7.26
20
        1.19
30
        6.90
40
 2.5000000000000001E-002
1
0 kg/s
0
CIRCLE
8
BUREAU-CENTERPOINTS
62
   0
10
        1.22
20
       11.52
30
        6.40
40
        0.02
0
LINE
8
BUREAU-NEGATIVENORMALS
62
   3
39
0
10
        1.22
20
       11.52
30
        6.40
11
        1.22
21
       11.52
31
        5.90
0
CIRCLE
8
BUREAU-MAXMASSFLOWCIRCLESIN
62
   3
10
        1.22
20
       11.52
30
        5.90
40
        0.00
0
TEXT
8
BUREAU-MAXTEXT
10
        1.22
20
       11.52
30
        5.90
40
 2.5000000000000001E-002
1
2.1E-322 kg/s
0
LINE
8
BUREAU-NORMALS
62
 252
39
0
10
        1.22
20
       11.52
30
        6.40
11
        1.22
21
       11.52
31
        6.90
0
CIRCLE
8
BUREAU-MAXMASSFLOWCIRCLESOUT
62
 252
10
        1.22
20
       11.52
30
        6.90
40
        0.00
0
TEXT
8
BUREAU-MAXTEXT
10
        1.22
20
       11.52
30
        6.90
40
 2.5000000000000001E-002
1
0 kg/s
0
ENDSEC
0
EOF
